<svg width="1735.401" height="72.751" viewBox="-0.7503910573005683 -4.700720604543491 1741.4008707555986 78.75147138557293" xmlns="http://www.w3.org/2000/svg"><g id="svgGroup" stroke-linecap="round" fill-rule="nonzero" font-size="9pt" stroke="#00a2ff" stroke-width="0.25mm" fill="#00a2ff" style="stroke:#00a2ff;stroke-width:0.25mm;fill:#00a2ff"><path d="M 54.25 8.551 L 45.65 17.451 A 32.727 32.727 0 0 0 43.132 15.415 Q 41.322 14.102 39.6 13.301 A 14.335 14.335 0 0 0 35.45 12.11 A 18.234 18.234 0 0 0 33 11.951 A 15.511 15.511 0 0 0 28.466 12.599 A 14.028 14.028 0 0 0 26.575 13.326 Q 23.65 14.701 21.475 17.626 Q 19.3 20.551 18.1 25.176 Q 16.9 29.801 16.9 36.351 Q 16.9 45.168 18.301 50.474 A 26.177 26.177 0 0 0 18.375 50.751 Q 19.367 54.348 21.048 56.578 A 9.726 9.726 0 0 0 22.85 58.426 A 10.843 10.843 0 0 0 27.414 60.463 A 15.293 15.293 0 0 0 30.45 60.751 A 18.576 18.576 0 0 0 33.677 60.479 A 16.174 16.174 0 0 0 35.05 60.176 Q 37.2 59.601 39.05 58.651 L 39.05 42.801 L 30.35 42.801 L 28.75 31.301 L 54.55 31.301 L 54.55 65.751 Q 49.35 68.951 43.375 70.851 A 40.5 40.5 0 0 1 34.628 72.565 A 49.371 49.371 0 0 1 30.3 72.751 A 38.664 38.664 0 0 1 22.809 72.062 Q 18.027 71.118 14.206 68.88 A 24.398 24.398 0 0 1 13.7 68.576 A 25.076 25.076 0 0 1 4.894 59.184 A 31.861 31.861 0 0 1 3.475 56.276 A 39.91 39.91 0 0 1 1.04 48.137 Q 0 42.759 0 36.251 A 53.84 53.84 0 0 1 0.544 28.41 A 39.347 39.347 0 0 1 2.475 20.626 Q 4.95 13.851 9.35 9.276 Q 13.75 4.701 19.6 2.351 A 33.121 33.121 0 0 1 30.943 0.021 A 38.072 38.072 0 0 1 32.2 0.001 Q 38.498 0.001 43.147 1.614 A 22.051 22.051 0 0 1 45 2.351 Q 50.2 4.701 54.25 8.551 Z" id="0" vector-effect="non-scaling-stroke"/><path d="M 110.7 13.451 L 83.45 13.451 L 83.45 30.101 L 107.45 30.101 L 107.45 41.601 L 83.45 41.601 L 83.45 59.301 L 112.4 59.301 L 112.4 71.051 L 67.05 71.051 L 67.05 1.751 L 112.35 1.751 L 110.7 13.451 Z" id="1" vector-effect="non-scaling-stroke"/><path d="M 172.55 71.051 L 152.65 71.051 L 134.4 15.301 A 189.665 189.665 0 0 1 134.673 17.118 Q 134.91 18.741 135.175 20.726 A 204.075 204.075 0 0 1 135.594 24.076 A 273.538 273.538 0 0 1 136 27.776 A 172.631 172.631 0 0 1 136.479 33.328 A 203.946 203.946 0 0 1 136.65 36.001 Q 136.9 40.351 136.9 44.901 L 136.9 71.051 L 122.95 71.051 L 122.95 1.751 L 143.4 1.751 L 161.1 57.201 A 134.893 134.893 0 0 1 160.684 54.666 Q 160.335 52.41 159.975 49.676 Q 159.4 45.301 159 39.901 A 145.924 145.924 0 0 1 158.657 32.838 A 178.607 178.607 0 0 1 158.6 28.301 L 158.6 1.751 L 172.55 1.751 L 172.55 71.051 Z" id="2" vector-effect="non-scaling-stroke"/><path d="M 230.7 13.451 L 203.45 13.451 L 203.45 30.101 L 227.45 30.101 L 227.45 41.601 L 203.45 41.601 L 203.45 59.301 L 232.4 59.301 L 232.4 71.051 L 187.05 71.051 L 187.05 1.751 L 232.35 1.751 L 230.7 13.451 Z" id="3" vector-effect="non-scaling-stroke"/><path d="M 280 41.801 L 298.15 71.051 L 279.6 71.051 L 264.6 44.551 L 259.95 44.551 L 259.95 71.051 L 243.55 71.051 L 243.55 1.751 L 265.35 1.751 A 62.249 62.249 0 0 1 273.139 2.205 Q 276.99 2.692 280.136 3.702 A 23.604 23.604 0 0 1 286.7 6.901 Q 293.9 12.051 293.9 22.801 A 22.384 22.384 0 0 1 293.494 27.167 A 16.892 16.892 0 0 1 292.05 31.451 Q 290.2 35.151 287.05 37.701 Q 283.9 40.251 280 41.801 Z M 265.4 13.251 L 259.95 13.251 L 259.95 33.301 L 266.05 33.301 Q 271.4 33.301 274.2 30.801 Q 276.436 28.804 276.887 24.895 A 18.32 18.32 0 0 0 277 22.801 Q 277 19.408 275.653 17.269 A 6.75 6.75 0 0 0 274.075 15.526 Q 271.15 13.251 265.4 13.251 Z" id="4" vector-effect="non-scaling-stroke"/><path d="M 341.4 71.051 L 337.75 56.101 L 317.45 56.101 L 313.8 71.051 L 296.65 71.051 L 317.85 1.751 L 337.75 1.751 L 358.95 71.051 L 341.4 71.051 Z M 327.55 13.551 L 320.05 44.201 L 335.05 44.201 L 327.55 13.551 Z" id="5" vector-effect="non-scaling-stroke"/><path d="M 381.65 71.051 L 362.95 71.051 L 362.95 1.751 L 380.45 1.751 Q 387.1 1.751 393.325 3.126 Q 399.55 4.501 404.475 8.176 A 22.555 22.555 0 0 1 409.841 13.961 A 30.222 30.222 0 0 1 412.3 18.576 Q 414.492 23.657 415.027 31.037 A 69.361 69.361 0 0 1 415.2 36.051 Q 415.2 44.501 413.4 50.526 A 34.439 34.439 0 0 1 411.409 55.709 A 25.216 25.216 0 0 1 408.375 60.551 A 24.981 24.981 0 0 1 402.331 66.01 A 23.489 23.489 0 0 1 400.9 66.851 Q 396.65 69.151 391.75 70.101 Q 386.85 71.051 381.65 71.051 Z M 382.85 13.651 L 379.35 13.651 L 379.35 59.201 L 382.85 59.201 A 18.739 18.739 0 0 0 386.685 58.822 A 15.763 15.763 0 0 0 389.075 58.126 A 11.111 11.111 0 0 0 393.392 55.133 A 13.507 13.507 0 0 0 393.95 54.476 Q 395.556 52.459 396.579 49.261 A 27.694 27.694 0 0 0 397.1 47.401 A 33.569 33.569 0 0 0 397.771 43.695 Q 398.012 41.803 398.118 39.621 A 73.889 73.889 0 0 0 398.2 36.051 A 68.468 68.468 0 0 0 398.062 31.545 Q 397.921 29.417 397.637 27.604 A 28.622 28.622 0 0 0 397.025 24.651 Q 396.176 21.469 394.855 19.333 A 11.528 11.528 0 0 0 393.775 17.851 Q 391.7 15.451 388.9 14.551 A 18.968 18.968 0 0 0 384.349 13.7 A 22.39 22.39 0 0 0 382.85 13.651 Z" id="6" vector-effect="non-scaling-stroke"/><path d="M 474.897 45.435 Q 474.122 50.927 472.35 55.526 Q 469.2 63.701 463.025 68.226 A 23.011 23.011 0 0 1 453.407 72.264 A 31.504 31.504 0 0 1 447.75 72.751 A 30.752 30.752 0 0 1 440.622 71.963 A 22.979 22.979 0 0 1 432.5 68.326 Q 426.3 63.901 423.15 55.751 Q 420.305 48.389 420.03 38.497 A 77.211 77.211 0 0 1 420 36.351 A 64.946 64.946 0 0 1 420.603 27.271 Q 421.379 21.785 423.15 17.201 A 30.954 30.954 0 0 1 426.99 10.056 A 25.193 25.193 0 0 1 432.5 4.526 A 23.209 23.209 0 0 1 442.372 0.443 A 31.473 31.473 0 0 1 447.75 0.001 Q 456.85 0.001 463.025 4.401 A 25.104 25.104 0 0 1 470.339 12.663 A 32.767 32.767 0 0 1 472.35 16.951 Q 475.196 24.313 475.471 34.204 A 77.211 77.211 0 0 1 475.5 36.351 A 65.049 65.049 0 0 1 474.897 45.435 Z M 457.11 20.498 A 20.315 20.315 0 0 0 456.15 17.751 Q 453.66 12.085 448.02 11.954 A 11.574 11.574 0 0 0 447.75 11.951 A 9.041 9.041 0 0 0 443.791 12.787 Q 441.743 13.77 440.35 15.907 A 12.845 12.845 0 0 0 439.35 17.776 Q 436.8 23.601 436.8 36.351 Q 436.8 46.46 438.422 52.203 A 20.055 20.055 0 0 0 439.4 54.951 A 11.83 11.83 0 0 0 441.222 57.883 A 8.222 8.222 0 0 0 447.75 60.751 A 9.416 9.416 0 0 0 451.533 60.025 Q 453.801 59.041 455.268 56.725 A 12.549 12.549 0 0 0 456.225 54.876 A 23.332 23.332 0 0 0 457.422 51.035 Q 458.388 46.808 458.624 40.582 A 111.922 111.922 0 0 0 458.7 36.351 Q 458.7 26.241 457.11 20.498 Z" id="7" vector-effect="non-scaling-stroke"/><path d="M 520 41.801 L 538.15 71.051 L 519.6 71.051 L 504.6 44.551 L 499.95 44.551 L 499.95 71.051 L 483.55 71.051 L 483.55 1.751 L 505.35 1.751 A 62.249 62.249 0 0 1 513.139 2.205 Q 516.99 2.692 520.136 3.702 A 23.604 23.604 0 0 1 526.7 6.901 Q 533.9 12.051 533.9 22.801 A 22.384 22.384 0 0 1 533.494 27.167 A 16.892 16.892 0 0 1 532.05 31.451 Q 530.2 35.151 527.05 37.701 Q 523.9 40.251 520 41.801 Z M 505.4 13.251 L 499.95 13.251 L 499.95 33.301 L 506.05 33.301 Q 511.4 33.301 514.2 30.801 Q 516.436 28.804 516.887 24.895 A 18.32 18.32 0 0 0 517 22.801 Q 517 19.408 515.653 17.269 A 6.75 6.75 0 0 0 514.075 15.526 Q 511.15 13.251 505.4 13.251 Z" id="8" vector-effect="non-scaling-stroke"/><path d="M 621.65 71.051 L 602.95 71.051 L 602.95 1.751 L 620.45 1.751 Q 627.1 1.751 633.325 3.126 Q 639.55 4.501 644.475 8.176 A 22.555 22.555 0 0 1 649.841 13.961 A 30.222 30.222 0 0 1 652.3 18.576 Q 654.492 23.657 655.027 31.037 A 69.361 69.361 0 0 1 655.2 36.051 Q 655.2 44.501 653.4 50.526 A 34.439 34.439 0 0 1 651.409 55.709 A 25.216 25.216 0 0 1 648.375 60.551 A 24.981 24.981 0 0 1 642.331 66.01 A 23.489 23.489 0 0 1 640.9 66.851 Q 636.65 69.151 631.75 70.101 Q 626.85 71.051 621.65 71.051 Z M 622.85 13.651 L 619.35 13.651 L 619.35 59.201 L 622.85 59.201 A 18.739 18.739 0 0 0 626.685 58.822 A 15.763 15.763 0 0 0 629.075 58.126 A 11.111 11.111 0 0 0 633.392 55.133 A 13.507 13.507 0 0 0 633.95 54.476 Q 635.556 52.459 636.579 49.261 A 27.694 27.694 0 0 0 637.1 47.401 A 33.569 33.569 0 0 0 637.771 43.695 Q 638.012 41.803 638.118 39.621 A 73.889 73.889 0 0 0 638.2 36.051 A 68.468 68.468 0 0 0 638.062 31.545 Q 637.921 29.417 637.637 27.604 A 28.622 28.622 0 0 0 637.025 24.651 Q 636.176 21.469 634.855 19.333 A 11.528 11.528 0 0 0 633.775 17.851 Q 631.7 15.451 628.9 14.551 A 18.968 18.968 0 0 0 624.349 13.7 A 22.39 22.39 0 0 0 622.85 13.651 Z" id="10" vector-effect="non-scaling-stroke"/><path d="M 710.7 13.451 L 683.45 13.451 L 683.45 30.101 L 707.45 30.101 L 707.45 41.601 L 683.45 41.601 L 683.45 59.301 L 712.4 59.301 L 712.4 71.051 L 667.05 71.051 L 667.05 1.751 L 712.35 1.751 L 710.7 13.451 Z" id="11" vector-effect="non-scaling-stroke"/><path d="M 807.9 48.001 L 800.4 48.001 L 800.4 71.051 L 784 71.051 L 784 1.751 L 805.8 1.751 Q 815.205 1.751 821.785 4.242 A 25.179 25.179 0 0 1 827.65 7.351 A 18.122 18.122 0 0 1 834.975 19.296 A 28.004 28.004 0 0 1 835.4 24.301 Q 835.4 31.25 832.829 36.113 A 18.187 18.187 0 0 1 831.95 37.601 A 20.546 20.546 0 0 1 823.065 45.093 A 25.046 25.046 0 0 1 822.3 45.426 A 32.726 32.726 0 0 1 814.721 47.503 A 44.661 44.661 0 0 1 807.9 48.001 Z M 806 13.451 L 800.4 13.451 L 800.4 36.101 L 806.85 36.101 A 17.838 17.838 0 0 0 809.743 35.878 Q 811.366 35.612 812.719 35.025 A 10.693 10.693 0 0 0 813.1 34.851 Q 815.7 33.601 817.1 31.001 Q 818.5 28.401 818.5 24.351 Q 818.5 20.651 817.125 18.226 Q 815.75 15.801 812.975 14.626 A 13.503 13.503 0 0 0 810.328 13.833 Q 808.396 13.451 806 13.451 Z" id="13" vector-effect="non-scaling-stroke"/><path d="M 880 41.801 L 898.15 71.051 L 879.6 71.051 L 864.6 44.551 L 859.95 44.551 L 859.95 71.051 L 843.55 71.051 L 843.55 1.751 L 865.35 1.751 A 62.249 62.249 0 0 1 873.139 2.205 Q 876.99 2.692 880.136 3.702 A 23.604 23.604 0 0 1 886.7 6.901 Q 893.9 12.051 893.9 22.801 A 22.384 22.384 0 0 1 893.494 27.167 A 16.892 16.892 0 0 1 892.05 31.451 Q 890.2 35.151 887.05 37.701 Q 883.9 40.251 880 41.801 Z M 865.4 13.251 L 859.95 13.251 L 859.95 33.301 L 866.05 33.301 Q 871.4 33.301 874.2 30.801 Q 876.436 28.804 876.887 24.895 A 18.32 18.32 0 0 0 877 22.801 Q 877 19.408 875.653 17.269 A 6.75 6.75 0 0 0 874.075 15.526 Q 871.15 13.251 865.4 13.251 Z" id="14" vector-effect="non-scaling-stroke"/><path d="M 950.7 13.451 L 923.45 13.451 L 923.45 30.101 L 947.45 30.101 L 947.45 41.601 L 923.45 41.601 L 923.45 59.301 L 952.4 59.301 L 952.4 71.051 L 907.05 71.051 L 907.05 1.751 L 952.35 1.751 L 950.7 13.451 Z" id="15" vector-effect="non-scaling-stroke"/><path d="M 958.95 62.751 L 967.25 53.551 Q 971.1 56.901 975.75 58.726 A 26.576 26.576 0 0 0 983.232 60.437 A 31.84 31.84 0 0 0 985.95 60.551 A 20.195 20.195 0 0 0 988.902 60.345 Q 990.579 60.098 992 59.551 A 10.41 10.41 0 0 0 994.185 58.415 A 8.138 8.138 0 0 0 996.05 56.651 A 7.041 7.041 0 0 0 997.436 53.154 A 9.195 9.195 0 0 0 997.5 52.051 A 9.375 9.375 0 0 0 997.297 50.046 A 6.771 6.771 0 0 0 996.35 47.751 A 7.056 7.056 0 0 0 995.156 46.387 Q 994.093 45.432 992.475 44.601 A 26.815 26.815 0 0 0 990.565 43.721 Q 988.235 42.748 984.9 41.751 A 84.163 84.163 0 0 1 979.489 39.889 Q 976.981 38.924 974.885 37.893 A 38.178 38.178 0 0 1 971.875 36.251 Q 967.407 33.529 965.161 30.025 A 14.828 14.828 0 0 1 964.725 29.301 A 17.169 17.169 0 0 1 962.718 23.255 A 22.188 22.188 0 0 1 962.5 20.101 A 19.056 19.056 0 0 1 963.321 14.405 A 16.016 16.016 0 0 1 966.025 9.251 A 21.253 21.253 0 0 1 972.929 3.561 A 26.536 26.536 0 0 1 975.5 2.376 A 33.57 33.57 0 0 1 985.1 0.149 A 40.522 40.522 0 0 1 988.6 0.001 A 47.392 47.392 0 0 1 995.73 0.512 A 34.727 34.727 0 0 1 1002.8 2.326 A 31.383 31.383 0 0 1 1012.592 8.162 A 30.076 30.076 0 0 1 1013.45 8.951 L 1005.7 17.851 A 24.441 24.441 0 0 0 999.526 14.011 A 22.766 22.766 0 0 0 998.15 13.476 Q 994.1 12.051 989.9 12.051 A 21.06 21.06 0 0 0 987.245 12.21 Q 985.853 12.387 984.653 12.761 A 12.768 12.768 0 0 0 984.45 12.826 Q 982.209 13.565 980.923 14.963 A 6.246 6.246 0 0 0 980.8 15.101 A 5.277 5.277 0 0 0 979.554 17.968 A 7.068 7.068 0 0 0 979.5 18.851 A 6.4 6.4 0 0 0 979.755 20.693 A 5.2 5.2 0 0 0 980.75 22.551 A 6.593 6.593 0 0 0 981.799 23.539 Q 982.867 24.361 984.538 25.127 A 23.904 23.904 0 0 0 985.1 25.376 A 56.187 56.187 0 0 0 987.272 26.245 Q 989.547 27.107 992.659 28.116 A 194.16 194.16 0 0 0 993.7 28.451 A 62.563 62.563 0 0 1 999.073 30.349 Q 1001.88 31.495 1004.238 32.827 A 37.31 37.31 0 0 1 1004.925 33.226 A 21.514 21.514 0 0 1 1009.475 36.785 A 18.321 18.321 0 0 1 1012.075 40.201 Q 1014.55 44.401 1014.55 50.801 A 20.908 20.908 0 0 1 1013.392 57.844 A 18.969 18.969 0 0 1 1011.175 62.201 Q 1007.8 67.151 1001.5 69.951 Q 995.2 72.751 986.35 72.751 A 55.647 55.647 0 0 1 979.447 72.346 Q 975.832 71.894 972.776 70.934 A 28.943 28.943 0 0 1 969.925 69.876 A 41.274 41.274 0 0 1 963.869 66.657 A 31.736 31.736 0 0 1 958.95 62.751 Z" id="16" vector-effect="non-scaling-stroke"/><path d="M 1057.1 1.751 L 1073.55 1.751 L 1073.55 47.851 A 30.049 30.049 0 0 1 1072.653 55.323 A 25.264 25.264 0 0 1 1070.675 60.576 Q 1067.8 66.201 1062.075 69.476 A 23.397 23.397 0 0 1 1055.632 71.932 Q 1052.05 72.751 1047.75 72.751 Q 1040.663 72.751 1035.539 70.636 A 21.498 21.498 0 0 1 1033.375 69.601 Q 1027.65 66.451 1024.8 60.851 Q 1021.95 55.251 1021.95 47.851 L 1021.95 1.751 L 1038.4 1.751 L 1038.4 41.751 Q 1038.4 49.854 1039.677 54.483 A 18.491 18.491 0 0 0 1040.1 55.826 A 6.802 6.802 0 0 0 1042.291 58.972 Q 1043.551 59.957 1045.365 60.328 A 11.928 11.928 0 0 0 1047.75 60.551 A 11.373 11.373 0 0 0 1050.602 60.22 Q 1053.982 59.344 1055.277 56.149 A 8.735 8.735 0 0 0 1055.4 55.826 A 22.272 22.272 0 0 0 1056.279 52.517 Q 1056.967 48.945 1057.079 43.806 A 94.461 94.461 0 0 0 1057.1 41.751 L 1057.1 1.751 Z" id="17" vector-effect="non-scaling-stroke"/><path d="M 1107.9 48.001 L 1100.4 48.001 L 1100.4 71.051 L 1084 71.051 L 1084 1.751 L 1105.8 1.751 Q 1115.205 1.751 1121.785 4.242 A 25.179 25.179 0 0 1 1127.65 7.351 A 18.122 18.122 0 0 1 1134.975 19.296 A 28.004 28.004 0 0 1 1135.4 24.301 Q 1135.4 31.25 1132.829 36.113 A 18.187 18.187 0 0 1 1131.95 37.601 A 20.546 20.546 0 0 1 1123.065 45.093 A 25.046 25.046 0 0 1 1122.3 45.426 A 32.726 32.726 0 0 1 1114.721 47.503 A 44.661 44.661 0 0 1 1107.9 48.001 Z M 1106 13.451 L 1100.4 13.451 L 1100.4 36.101 L 1106.85 36.101 A 17.838 17.838 0 0 0 1109.743 35.878 Q 1111.366 35.612 1112.719 35.025 A 10.693 10.693 0 0 0 1113.1 34.851 Q 1115.7 33.601 1117.1 31.001 Q 1118.5 28.401 1118.5 24.351 Q 1118.5 20.651 1117.125 18.226 Q 1115.75 15.801 1112.975 14.626 A 13.503 13.503 0 0 0 1110.328 13.833 Q 1108.396 13.451 1106 13.451 Z" id="18" vector-effect="non-scaling-stroke"/><path d="M 1177.1 1.751 L 1193.55 1.751 L 1193.55 47.851 A 30.049 30.049 0 0 1 1192.653 55.323 A 25.264 25.264 0 0 1 1190.675 60.576 Q 1187.8 66.201 1182.075 69.476 A 23.397 23.397 0 0 1 1175.632 71.932 Q 1172.05 72.751 1167.75 72.751 Q 1160.663 72.751 1155.539 70.636 A 21.498 21.498 0 0 1 1153.375 69.601 Q 1147.65 66.451 1144.8 60.851 Q 1141.95 55.251 1141.95 47.851 L 1141.95 1.751 L 1158.4 1.751 L 1158.4 41.751 Q 1158.4 49.854 1159.677 54.483 A 18.491 18.491 0 0 0 1160.1 55.826 A 6.802 6.802 0 0 0 1162.291 58.972 Q 1163.551 59.957 1165.365 60.328 A 11.928 11.928 0 0 0 1167.75 60.551 A 11.373 11.373 0 0 0 1170.602 60.22 Q 1173.982 59.344 1175.277 56.149 A 8.735 8.735 0 0 0 1175.4 55.826 A 22.272 22.272 0 0 0 1176.279 52.517 Q 1176.967 48.945 1177.079 43.806 A 94.461 94.461 0 0 0 1177.1 41.751 L 1177.1 1.751 Z" id="19" vector-effect="non-scaling-stroke"/><path d="M 1250.7 13.451 L 1223.45 13.451 L 1223.45 30.101 L 1247.45 30.101 L 1247.45 41.601 L 1223.45 41.601 L 1223.45 59.301 L 1252.4 59.301 L 1252.4 71.051 L 1207.05 71.051 L 1207.05 1.751 L 1252.35 1.751 L 1250.7 13.451 Z" id="20" vector-effect="non-scaling-stroke"/><path d="M 1258.95 62.751 L 1267.25 53.551 Q 1271.1 56.901 1275.75 58.726 A 26.576 26.576 0 0 0 1283.232 60.437 A 31.84 31.84 0 0 0 1285.95 60.551 A 20.195 20.195 0 0 0 1288.902 60.345 Q 1290.579 60.098 1292 59.551 A 10.41 10.41 0 0 0 1294.185 58.415 A 8.138 8.138 0 0 0 1296.05 56.651 A 7.041 7.041 0 0 0 1297.436 53.154 A 9.195 9.195 0 0 0 1297.5 52.051 A 9.375 9.375 0 0 0 1297.297 50.046 A 6.771 6.771 0 0 0 1296.35 47.751 A 7.056 7.056 0 0 0 1295.156 46.387 Q 1294.093 45.432 1292.475 44.601 A 26.815 26.815 0 0 0 1290.565 43.721 Q 1288.235 42.748 1284.9 41.751 A 84.163 84.163 0 0 1 1279.489 39.889 Q 1276.981 38.924 1274.885 37.893 A 38.178 38.178 0 0 1 1271.875 36.251 Q 1267.407 33.529 1265.161 30.025 A 14.828 14.828 0 0 1 1264.725 29.301 A 17.169 17.169 0 0 1 1262.718 23.255 A 22.188 22.188 0 0 1 1262.5 20.101 A 19.056 19.056 0 0 1 1263.321 14.405 A 16.016 16.016 0 0 1 1266.025 9.251 A 21.253 21.253 0 0 1 1272.929 3.561 A 26.536 26.536 0 0 1 1275.5 2.376 A 33.57 33.57 0 0 1 1285.1 0.149 A 40.522 40.522 0 0 1 1288.6 0.001 A 47.392 47.392 0 0 1 1295.73 0.512 A 34.727 34.727 0 0 1 1302.8 2.326 A 31.383 31.383 0 0 1 1312.592 8.162 A 30.076 30.076 0 0 1 1313.45 8.951 L 1305.7 17.851 A 24.441 24.441 0 0 0 1299.526 14.011 A 22.766 22.766 0 0 0 1298.15 13.476 Q 1294.1 12.051 1289.9 12.051 A 21.06 21.06 0 0 0 1287.245 12.21 Q 1285.853 12.387 1284.653 12.761 A 12.768 12.768 0 0 0 1284.45 12.826 Q 1282.209 13.565 1280.923 14.963 A 6.246 6.246 0 0 0 1280.8 15.101 A 5.277 5.277 0 0 0 1279.554 17.968 A 7.068 7.068 0 0 0 1279.5 18.851 A 6.4 6.4 0 0 0 1279.755 20.693 A 5.2 5.2 0 0 0 1280.75 22.551 A 6.593 6.593 0 0 0 1281.799 23.539 Q 1282.867 24.361 1284.538 25.127 A 23.904 23.904 0 0 0 1285.1 25.376 A 56.187 56.187 0 0 0 1287.272 26.245 Q 1289.547 27.107 1292.659 28.116 A 194.16 194.16 0 0 0 1293.7 28.451 A 62.563 62.563 0 0 1 1299.073 30.349 Q 1301.88 31.495 1304.238 32.827 A 37.31 37.31 0 0 1 1304.925 33.226 A 21.514 21.514 0 0 1 1309.475 36.785 A 18.321 18.321 0 0 1 1312.075 40.201 Q 1314.55 44.401 1314.55 50.801 A 20.908 20.908 0 0 1 1313.392 57.844 A 18.969 18.969 0 0 1 1311.175 62.201 Q 1307.8 67.151 1301.5 69.951 Q 1295.2 72.751 1286.35 72.751 A 55.647 55.647 0 0 1 1279.447 72.346 Q 1275.832 71.894 1272.776 70.934 A 28.943 28.943 0 0 1 1269.925 69.876 A 41.274 41.274 0 0 1 1263.869 66.657 A 31.736 31.736 0 0 1 1258.95 62.751 Z" id="21" vector-effect="non-scaling-stroke"/><path d="M 1374.4 14.301 L 1355.85 14.301 L 1355.85 71.051 L 1339.45 71.051 L 1339.45 14.301 L 1320 14.301 L 1320 1.751 L 1376.1 1.751 L 1374.4 14.301 Z" id="22" vector-effect="non-scaling-stroke"/><path d="M 1434.897 45.435 Q 1434.122 50.927 1432.35 55.526 Q 1429.2 63.701 1423.025 68.226 A 23.011 23.011 0 0 1 1413.407 72.264 A 31.504 31.504 0 0 1 1407.75 72.751 A 30.752 30.752 0 0 1 1400.622 71.963 A 22.979 22.979 0 0 1 1392.5 68.326 Q 1386.3 63.901 1383.15 55.751 Q 1380.305 48.389 1380.03 38.497 A 77.211 77.211 0 0 1 1380 36.351 A 64.946 64.946 0 0 1 1380.603 27.271 Q 1381.379 21.785 1383.15 17.201 A 30.954 30.954 0 0 1 1386.99 10.056 A 25.193 25.193 0 0 1 1392.5 4.526 A 23.209 23.209 0 0 1 1402.372 0.443 A 31.473 31.473 0 0 1 1407.75 0.001 Q 1416.85 0.001 1423.025 4.401 A 25.104 25.104 0 0 1 1430.339 12.663 A 32.767 32.767 0 0 1 1432.35 16.951 Q 1435.196 24.313 1435.471 34.204 A 77.211 77.211 0 0 1 1435.5 36.351 A 65.049 65.049 0 0 1 1434.897 45.435 Z M 1417.11 20.498 A 20.315 20.315 0 0 0 1416.15 17.751 Q 1413.66 12.085 1408.02 11.954 A 11.574 11.574 0 0 0 1407.75 11.951 A 9.041 9.041 0 0 0 1403.791 12.787 Q 1401.743 13.77 1400.35 15.907 A 12.845 12.845 0 0 0 1399.35 17.776 Q 1396.8 23.601 1396.8 36.351 Q 1396.8 46.46 1398.422 52.203 A 20.055 20.055 0 0 0 1399.4 54.951 A 11.83 11.83 0 0 0 1401.222 57.883 A 8.222 8.222 0 0 0 1407.75 60.751 A 9.416 9.416 0 0 0 1411.533 60.025 Q 1413.801 59.041 1415.268 56.725 A 12.549 12.549 0 0 0 1416.225 54.876 A 23.332 23.332 0 0 0 1417.422 51.035 Q 1418.388 46.808 1418.624 40.582 A 111.922 111.922 0 0 0 1418.7 36.351 Q 1418.7 26.241 1417.11 20.498 Z" id="23" vector-effect="non-scaling-stroke"/><path d="M 1438.95 62.751 L 1447.25 53.551 Q 1451.1 56.901 1455.75 58.726 A 26.576 26.576 0 0 0 1463.232 60.437 A 31.84 31.84 0 0 0 1465.95 60.551 A 20.195 20.195 0 0 0 1468.902 60.345 Q 1470.579 60.098 1472 59.551 A 10.41 10.41 0 0 0 1474.185 58.415 A 8.138 8.138 0 0 0 1476.05 56.651 A 7.041 7.041 0 0 0 1477.436 53.154 A 9.195 9.195 0 0 0 1477.5 52.051 A 9.375 9.375 0 0 0 1477.297 50.046 A 6.771 6.771 0 0 0 1476.35 47.751 A 7.056 7.056 0 0 0 1475.156 46.387 Q 1474.093 45.432 1472.475 44.601 A 26.815 26.815 0 0 0 1470.565 43.721 Q 1468.235 42.748 1464.9 41.751 A 84.163 84.163 0 0 1 1459.489 39.889 Q 1456.981 38.924 1454.885 37.893 A 38.178 38.178 0 0 1 1451.875 36.251 Q 1447.407 33.529 1445.161 30.025 A 14.828 14.828 0 0 1 1444.725 29.301 A 17.169 17.169 0 0 1 1442.718 23.255 A 22.188 22.188 0 0 1 1442.5 20.101 A 19.056 19.056 0 0 1 1443.321 14.405 A 16.016 16.016 0 0 1 1446.025 9.251 A 21.253 21.253 0 0 1 1452.929 3.561 A 26.536 26.536 0 0 1 1455.5 2.376 A 33.57 33.57 0 0 1 1465.1 0.149 A 40.522 40.522 0 0 1 1468.6 0.001 A 47.392 47.392 0 0 1 1475.73 0.512 A 34.727 34.727 0 0 1 1482.8 2.326 A 31.383 31.383 0 0 1 1492.592 8.162 A 30.076 30.076 0 0 1 1493.45 8.951 L 1485.7 17.851 A 24.441 24.441 0 0 0 1479.526 14.011 A 22.766 22.766 0 0 0 1478.15 13.476 Q 1474.1 12.051 1469.9 12.051 A 21.06 21.06 0 0 0 1467.245 12.21 Q 1465.853 12.387 1464.653 12.761 A 12.768 12.768 0 0 0 1464.45 12.826 Q 1462.209 13.565 1460.923 14.963 A 6.246 6.246 0 0 0 1460.8 15.101 A 5.277 5.277 0 0 0 1459.554 17.968 A 7.068 7.068 0 0 0 1459.5 18.851 A 6.4 6.4 0 0 0 1459.755 20.693 A 5.2 5.2 0 0 0 1460.75 22.551 A 6.593 6.593 0 0 0 1461.799 23.539 Q 1462.867 24.361 1464.538 25.127 A 23.904 23.904 0 0 0 1465.1 25.376 A 56.187 56.187 0 0 0 1467.272 26.245 Q 1469.547 27.107 1472.659 28.116 A 194.16 194.16 0 0 0 1473.7 28.451 A 62.563 62.563 0 0 1 1479.073 30.349 Q 1481.88 31.495 1484.238 32.827 A 37.31 37.31 0 0 1 1484.925 33.226 A 21.514 21.514 0 0 1 1489.475 36.785 A 18.321 18.321 0 0 1 1492.075 40.201 Q 1494.55 44.401 1494.55 50.801 A 20.908 20.908 0 0 1 1493.392 57.844 A 18.969 18.969 0 0 1 1491.175 62.201 Q 1487.8 67.151 1481.5 69.951 Q 1475.2 72.751 1466.35 72.751 A 55.647 55.647 0 0 1 1459.447 72.346 Q 1455.832 71.894 1452.776 70.934 A 28.943 28.943 0 0 1 1449.925 69.876 A 41.274 41.274 0 0 1 1443.869 66.657 A 31.736 31.736 0 0 1 1438.95 62.751 Z" id="24" vector-effect="non-scaling-stroke"/><path d="M 1599.6 71.051 L 1580.55 34.051 L 1599.5 1.751 L 1616.7 1.751 L 1597.1 32.851 L 1618.6 71.051 L 1599.6 71.051 Z M 1580.05 1.751 L 1580.05 71.051 L 1563.65 71.051 L 1563.65 1.751 L 1580.05 1.751 Z" id="26" vector-effect="non-scaling-stroke"/><path d="M 1655.25 1.751 L 1672.1 1.751 L 1676 71.051 L 1661.7 71.051 L 1660.85 41.401 Q 1660.75 37.251 1660.775 34.001 A 248.455 248.455 0 0 1 1660.819 30.845 A 206.922 206.922 0 0 1 1660.9 27.876 Q 1661 25.001 1661.225 22.076 Q 1661.45 19.151 1661.7 15.701 L 1653.9 59.251 L 1641.5 59.251 L 1633.1 15.701 A 493.861 493.861 0 0 1 1633.382 18.907 A 411.446 411.446 0 0 1 1633.625 21.926 Q 1633.85 24.851 1633.95 27.801 Q 1634.05 30.751 1634.1 34.126 Q 1634.15 37.501 1634.05 41.651 L 1633.55 71.051 L 1619.5 71.051 L 1623.4 1.751 L 1640.25 1.751 L 1647.95 46.551 L 1655.25 1.751 Z" id="27" vector-effect="non-scaling-stroke"/><path d="M 1707.9 48.001 L 1700.4 48.001 L 1700.4 71.051 L 1684 71.051 L 1684 1.751 L 1705.8 1.751 Q 1715.205 1.751 1721.785 4.242 A 25.179 25.179 0 0 1 1727.65 7.351 A 18.122 18.122 0 0 1 1734.975 19.296 A 28.004 28.004 0 0 1 1735.4 24.301 Q 1735.4 31.25 1732.829 36.113 A 18.187 18.187 0 0 1 1731.95 37.601 A 20.546 20.546 0 0 1 1723.065 45.093 A 25.046 25.046 0 0 1 1722.3 45.426 A 32.726 32.726 0 0 1 1714.721 47.503 A 44.661 44.661 0 0 1 1707.9 48.001 Z M 1706 13.451 L 1700.4 13.451 L 1700.4 36.101 L 1706.85 36.101 A 17.838 17.838 0 0 0 1709.743 35.878 Q 1711.366 35.612 1712.719 35.025 A 10.693 10.693 0 0 0 1713.1 34.851 Q 1715.7 33.601 1717.1 31.001 Q 1718.5 28.401 1718.5 24.351 Q 1718.5 20.651 1717.125 18.226 Q 1715.75 15.801 1712.975 14.626 A 13.503 13.503 0 0 0 1710.328 13.833 Q 1708.396 13.451 1706 13.451 Z" id="28" vector-effect="non-scaling-stroke"/></g></svg>