<svg id="Layer_1" data-name="Layer 1" xmlns="http://www.w3.org/2000/svg" viewBox="0 0 507 507">
  <defs>
    <style>
      .cls-1 {
        fill: #3f6288;
      }

      .cls-2 {
        fill: #f6f8f9;
      }

      .cls-3 {
        fill: #fdfdfd;
      }
    </style>
  </defs>
  
  <path class="cls-1" d="M68.74,8.46l370.47-.21c32.55,3.13,59.64,31.44,61.82,63.99v364.02c-2.9,34.29-30.51,61.05-64.78,63.28H73.74c-35.22-2.36-63.58-30.84-64.78-66.28l.04-359.49c1.62-32.86,27.03-61.09,59.75-65.32ZM98.1,227.29v-16.85h-20.22v8.24h11.23c-1.62,4.88.97,5.97-4.83,7.53-20.27,5.44-24.77-22.75-9.27-27.24,6.38-1.85,10.34.36,15.21,4,1.48-.91,7.09-3.26,6.03-5.27-1.69-3.2-8.66-6.74-12.19-7.29-18.85-2.95-33.62,13.3-26.22,31.47,6.32,15.53,29.56,17.85,40.26,5.42ZM307.79,190.22h-8.24v15.73c-9.07-7.09-20.28-4.9-23.6,6.73-4.5,15.76,8.7,29.53,23.23,18.74l.37,3h8.24v-44.19ZM427.62,190.22h-8.99v15.73c-16.9-14.57-32.52,11.3-19.49,25.11,5.16,5.46,13.88,5.86,19.12.36l.37,3h8.99v-44.19ZM112.33,221.67h22.09c2.23-2.06.88-6.32-.02-8.96-6.28-18.5-33.98-12.31-30.99,9.27,1.84,13.3,19.82,17.42,29.1,8.95l-3.37-5.51c-5.53,4.22-15.88,4.82-16.8-3.75ZM170.75,234.4v-25.84c0-.75-2.8-4.57-3.77-5.22-5.11-3.38-12.73-1.62-16.83,2.59l-1.6-3.64c-2.51.02-5.95-.98-7.76,1.02v31.08h8.99v-21.34c0-2.66,8.02-4.42,10.74-2.68.32.2,2,3.23,2,3.43v20.59h8.24ZM208.94,221.67c4.24-20.39-24.83-27.98-31.07-8.98-6.05,18.4,15.64,30.02,28.64,17.6l-3.24-4.86c-5.63,4.18-16.26,5.08-16.8-3.76h22.47ZM331.59,201.66c-23.43.48-22.23,36.19,2.8,33.49,20.36-2.19,18.81-33.93-2.8-33.49ZM442.6,221.67h22.84c1.37-1.11.6-5.93.2-7.69-4.26-18.67-31.69-14.93-32.05,4.35-.29,15.99,18.58,21.91,29.97,12.65l-3.5-4.73c-6.79,2.97-15.04,4.26-17.46-4.58ZM214.93,203.32v31.08h8.99v-20.59c0-2.77,9.72-3.45,10.16-4.07l.33-7.54c-3.71-.48-8.41.64-9.75,4.49l-.74-4.49c-1.8.29-8.38-.86-8.99,1.13ZM268.1,234.4v-23.59c0-.99-2.08-4.33-2.97-5.27-5.41-5.79-18.91-3.85-24.79.83l3.42,6.3c5.4-6.03,17.57-5.87,16.09,4.51-9.69-6.23-23.65-3.17-20.79,10.69,1.81,8.76,14.55,9,20.41,4.28l.79,2.31,7.83-.05ZM354.97,202.95v31.45h8.99v-20.59c0-2.77,9.72-3.45,10.16-4.07l.33-7.54c-4.37-.9-6.53,1.42-10.1,3.01l-1.47-2.82-7.9.56ZM74.89,277.84h13.85c.33,0,4.47-1.94,5.12-2.37,7.41-4.86,7.96-17.03,1.19-22.66-.98-.81-5.4-3.43-6.31-3.43h-23.59v42.69h9.74s0-14.23,0-14.23ZM371.45,268.1v17.6c0,.26,1.54,3.59,1.9,4.09,3.06,4.27,9.32,3.51,13.72,2.17l-.65-7.39c-9.68,3.8-4.87-10.93-5.99-16.47l5.67-.7.33-6.79h-6s0-8.24,0-8.24h-8.99s0,8.25,0,8.25h-4.5s0,7.05,0,7.05l4.51.43ZM113.08,292.07v-19.85c0-2.9,7.6-4.36,9.75-4.54l-.02-7.81c-3.81-.11-7.03,1.61-9.36,4.49l-.37-3.74h-8.25s-.75,31.46-.75,31.46h8.99ZM158.02,279.34c3.11-30.2-41.48-21.96-30.33,4.49,4.56,10.83,19.94,11.84,28.07,4.81l-3.5-4.72c-7.2,3.01-14.46,4.32-17.46-4.58h23.22ZM184.17,269.56l3.05-5.53c-8.58-9.37-32.24-1.67-23.56,11.53,3.46,5.25,16.56,3.36,16.13,8.63-.22,2.68-5.86,2.15-7.87,1.84-3.06-.49-4.87-3.27-7.85-3.65-7.95,10.23,9.01,11.66,15.86,10.27,8.7-1.77,11.81-14.12,2.34-18.47-2.74-1.26-13.11-1.83-12.19-5.61,1.08-4.4,11.45-.32,14.08.99ZM239.65,288.32c6.88,7.31,18.27,6.11,22.38-3.45,5.61-13.03-3.96-30.68-18.9-23.4-2.12,1.03-3.75,4.96-3.48-.87h-8.24v43.44h8.24v-15.73ZM335.5,279.34c3.37-26.46-35.24-25.69-31.39,1.06.75,5.22,6.38,11.33,11.72,12.24,5.87,1,24.33-1.1,13.89-8.71-6.15,2.76-15.69,4.34-16.69-4.59h22.47ZM363.95,263.63c-7.2-5.31-23.88-5.75-24.72,5.61-.92,12.39,15.62,10.05,17.14,12.43.28.44.25,1.93.11,2.51-1.14,4.84-12.24.9-14.62-1.78-5.66,5.06-3.54,7.89,2.96,9.7,9.53,2.66,22.18.17,19.84-12.36-1.23-6.61-11.74-6.31-16.25-8.44-.87-.41-.99.03-.99-1.32l.74-2.32c2.27-2.82,9.77.16,12.34,1.9l3.45-5.93ZM402.71,260.05c-17.69,3-17.43,30.31-.11,32.71,28.28,3.92,26.05-37.11.11-32.71ZM449.32,269.6l2.93-4.87c-6.66-8.51-27.05-5.44-25.35,6.68,1.39,9.88,15.5,7.46,17.58,10.91,2.6,4.3-4.63,4.08-7.44,3.69-3.07-.43-4.51-2.66-7.41-2.84l-3.47,5.83c5.43,3.2,11.11,4.63,17.49,3.75,9.49-1.31,13.79-13.26,4.11-18.21-2.72-1.39-12.69-2.65-12.69-5.31,2.36-5.7,10.18-1.22,14.25.36ZM202.2,260.61h-8.24v25.09c0,.32,2.09,3.57,2.6,4.14,4.44,5.02,13.53,3.77,18-.77l.37,3h8.99v-31.46h-8.99v21.34c0,2.57-8.89,4.84-11.06,2.45-.19-.2-1.67-4.45-1.67-4.7v-19.1ZM277.84,260.61h-8.99v23.59c0,.27,1.3,3.88,1.6,4.4,3.79,6.64,14.36,5.96,19.01.48l.37,2.98c1.61-.51,8.98,1.97,8.98-.37v-31.08h-8.24v19.85c0,6.33-12.73,5.66-12.73,2.25v-22.09ZM366.78,340.19c-10.94,1.48-20.11,12.64-20.7,23.5-.36,6.61.7,15.42.69,22.33-.02,11.95-1.25,26.01-.78,37.46.55,13.4,11.05,23.99,24.31,25.13,20.78-1.44,43.93,1.84,64.42-.04,12.29-1.13,23.09-10.2,24.34-22.84,1.99-20.06-1.47-43.24,0-63.64-1.23-10.84-9.46-19.38-19.9-22.03-22.65,1.9-50.32-2.85-72.38.13Z" data-index="1" style="opacity: 1;"></path>
  <path class="cls-2" d="M366.78,340.19c22.06-2.97,49.73,1.77,72.38-.13,10.45,2.65,18.67,11.2,19.9,22.03-1.47,20.4,1.99,43.58,0,63.64-1.25,12.64-12.06,21.71-24.34,22.84-20.49,1.88-43.64-1.4-64.42.04-13.25-1.15-23.75-11.74-24.31-25.13-.47-11.44.76-25.5.78-37.46.01-6.91-1.05-15.72-.69-22.33.59-10.86,9.76-22.02,20.7-23.5ZM436.43,431.18c2.29-2.28-.45-20.58-.6-24.88-.17-4.98-.57-13.27.1-17.94.81-5.68,6.9-9.67,6.73-18.03-.32-16.61-16.5-18.86-18.58-2.06-1.31,10.61,5.67,13.78,6.53,22.28.99,9.8-1.11,19.52-1.48,29.21-.23,6.14-1.91,15.56,7.3,11.42ZM368.45,357.97h-2.24s-1.44,25.03-1.44,25.03c.16,4.3,3.13,3.94,4.49,6,2.48,3.74-.64,24.92-.84,30.73-.09,2.65-.75,10.9,1.52,12.01,7.86,3.84,6.91-5.76,6.74-10.48-.37-10.22-2.24-20.44-1.55-30.74.19-1.63,3.16-2.12,4.14-4.14,1.88-3.87.39-6.61.38-10.04,0-4.85.42-10.31.07-15.05-.1-1.32.14-2.45-1.17-3.32l-1.85,7.11c-.4,4.05.5,8.8,0,12.74-.17,1.37.25,1.21-1.5,1.11v-20.97h-1.5v20.97h-1.5v-17.6c0-.57-1.24-2.2-.75-3.37h-1.49v20.97h-1.5v-20.97ZM403.53,361.9c-10.18.5-20.35,9.22-17.49,20.06,1.1,4.16,5.02,4.87,6,6.73,2.18,4.15-.82,7.56,6.39,10.09,13.08,4.59,26.17-9.38,19.04-22.03-3.01-5.35-10.74-5.47-5.58-13.16-.07-1.26-6.76-1.77-8.35-1.69ZM385.31,403.65l-1.91,3.33c-.05.78,1.54,2.66,1.91,2.66h35.2c.55,0,2.3-2.37,1.91-3.33.05-.78-1.54-2.66-1.91-2.66h-35.2ZM384.38,414.32c-2.21,1.88-.62,4.7,2.39,5.09,5.89.77,26.42.79,32.27,0,3.19-.43,4.71-2.71,1.81-4.89-3.08-2.31-15.12-.33-19.86-.36-3.65-.02-13.9-2.17-16.62.15Z" data-index="2"></path>
  <path class="cls-2" d="M98.1,227.29c-10.7,12.43-33.94,10.11-40.26-5.42-7.4-18.16,7.37-34.41,26.22-31.47,3.54.55,10.5,4.09,12.19,7.29,1.06,2.01-4.56,4.36-6.03,5.27-4.87-3.64-8.83-5.85-15.21-4-15.5,4.49-11,32.68,9.27,27.24,5.8-1.56,3.22-2.65,4.83-7.53h-11.23v-8.24h20.22v16.85Z" data-index="3" style="opacity: 1;"></path>
  <path class="cls-2" d="M74.89,277.84v14.23s-9.74,0-9.74,0v-42.69h23.59c.91,0,5.33,2.62,6.31,3.43,6.77,5.63,6.23,17.8-1.19,22.66-.65.43-4.79,2.37-5.12,2.37h-13.85ZM74.14,269.6h12.36c.21,0,3.03-2.29,3.29-2.7,1.82-2.87-.29-9.28-2.54-9.28h-13.11v11.98Z" data-index="4"></path>
  <path class="cls-2" d="M427.62,190.22v44.18h-8.99s-.37-2.99-.37-2.99c-5.24,5.5-13.96,5.1-19.12-.36-13.03-13.8,2.59-39.68,19.49-25.11v-15.73h8.99ZM408.68,209.85c-7.89,1.8-7.52,21.71,6.25,17.47,4.62-1.42,4.63-10.43,3.55-14.11s-6.79-4.05-9.8-3.36Z" data-index="5"></path>
  <path class="cls-2" d="M307.79,190.22v44.18h-8.24s-.37-2.99-.37-2.99c-14.53,10.79-27.74-2.98-23.23-18.74,3.32-11.63,14.53-13.82,23.6-6.73v-15.73h8.24ZM288.86,209.85c-4.9,1.11-5.94,8.94-4.33,13,2.6,6.55,13.49,6.72,14.87.53,1.92-8.59-.44-15.81-10.54-13.53Z" data-index="6"></path>
  <path class="cls-2" d="M239.65,288.32v15.73h-8.24v-43.44h8.24c-.28,5.82,1.36,1.89,3.48.86,14.94-7.29,24.51,10.37,18.9,23.4-4.11,9.56-15.51,10.76-22.38,3.45ZM240.61,269.81c-1.52,1.86-1.4,10.16-.26,12.18,4.48,7.9,16.52,2.95,14.09-8.85-1.27-6.18-10.21-7.77-13.83-3.33Z" data-index="7"></path>
  <path class="cls-2" d="M331.59,201.66c21.6-.44,23.16,31.3,2.8,33.49-25.03,2.7-26.22-33.01-2.8-33.49ZM328.54,209.85c-6.51,1.92-7.29,17.57,2.84,17.88,12.7.39,10.78-21.9-2.84-17.88Z" data-index="8"></path>
  <path class="cls-2" d="M402.71,260.05c25.94-4.41,28.17,36.62-.11,32.71-17.32-2.4-17.58-29.7.11-32.71ZM400.89,283.6c7.38,6.52,18.13-4.29,11.33-13.2-7.8-10.21-19.83,5.69-11.33,13.2Z" data-index="9"></path>
  <path class="cls-2" d="M442.6,221.67c2.41,8.84,10.67,7.55,17.46,4.58l3.5,4.73c-11.39,9.27-30.26,3.35-29.97-12.65.35-19.29,27.79-23.02,32.05-4.35.4,1.76,1.17,6.58-.2,7.69h-22.84ZM457.57,215.68c-.21-10.04-14.07-9.77-14.98,0h14.98Z" data-index="10"></path>
  <path class="cls-2" d="M208.94,221.67h-22.47c.54,8.84,11.16,7.94,16.8,3.76l3.24,4.86c-13,12.42-34.69.8-28.64-17.6,6.25-19,35.31-11.41,31.07,8.98ZM200.7,215.68c-.13-9.95-14.43-9.95-14.98,0h14.98Z" data-index="11"></path>
  <path class="cls-2" d="M268.1,234.4l-7.83.05-.79-2.31c-5.87,4.72-18.61,4.48-20.41-4.28-2.86-13.86,11.1-16.91,20.79-10.69,1.47-10.38-10.69-10.54-16.09-4.51l-3.42-6.3c5.88-4.68,19.38-6.62,24.79-.83.88.94,2.97,4.29,2.97,5.27v23.59ZM249.91,220.33c-5.23,1.51-3.22,10.05,4.3,9.54,8.97-.61,7.23-12.86-4.3-9.54Z" data-index="12"></path>
  <path class="cls-2" d="M112.33,221.67c.92,8.58,11.27,7.97,16.8,3.75l3.37,5.51c-9.27,8.47-27.25,4.35-29.1-8.95-2.99-21.58,24.71-27.78,30.99-9.27.9,2.65,2.25,6.91.02,8.96h-22.09ZM126.56,215.68c-.29-10.35-13.4-9.69-14.98,0h14.98Z" data-index="13"></path>
  <path class="cls-2" d="M335.5,279.34h-22.47c1,8.93,10.54,7.35,16.69,4.59,10.43,7.6-8.02,9.71-13.89,8.71-5.35-.91-10.97-7.02-11.72-12.24-3.85-26.74,34.76-27.51,31.39-1.06ZM327.27,273.35c-.51-8.96-14.03-9.3-14.23,0h14.23Z" data-index="14"></path>
  <path class="cls-2" d="M158.02,279.34h-23.22c2.99,8.9,10.25,7.59,17.46,4.58l3.5,4.72c-8.13,7.03-23.5,6.02-28.07-4.81-11.15-26.46,33.45-34.7,30.33-4.49ZM134.8,273.35h14.98c-.36-9.53-13.84-9.15-14.98,0Z" data-index="15"></path>
  <path class="cls-2" d="M170.75,234.4h-8.24v-20.59c0-.2-1.68-3.23-2-3.43-2.72-1.74-10.74.02-10.74,2.68v21.34h-8.99v-31.08c1.82-2,5.26-1,7.76-1.02l1.6,3.64c4.1-4.21,11.72-5.97,16.83-2.59.97.64,3.77,4.46,3.77,5.22v25.84Z" data-index="16"></path>
  <path class="cls-2" d="M277.84,260.61v22.09c0,3.41,12.73,4.08,12.73-2.25v-19.85h8.24v31.08c0,2.34-7.38-.14-8.98.37l-.37-2.98c-4.65,5.48-15.22,6.16-19.01-.48-.3-.52-1.6-4.12-1.6-4.4v-23.59h8.99Z" data-index="17"></path>
  <path class="cls-2" d="M202.2,260.61v19.1c0,.25,1.48,4.5,1.67,4.7,2.17,2.39,11.06.12,11.06-2.45v-21.34h8.99v31.45h-8.99s-.37-2.99-.37-2.99c-4.47,4.54-13.56,5.79-18,.77-.51-.58-2.6-3.83-2.6-4.14v-25.09h8.24Z" data-index="18"></path>
  <path class="cls-2" d="M184.17,269.56c-2.63-1.31-13-5.4-14.08-.99-.93,3.78,9.44,4.35,12.19,5.61,9.47,4.35,6.36,16.7-2.34,18.47-6.86,1.39-23.82-.04-15.86-10.27,2.97.38,4.79,3.17,7.85,3.65,2,.32,7.65.84,7.87-1.84.43-5.27-12.67-3.37-16.13-8.63-8.68-13.21,14.98-20.91,23.56-11.53l-3.05,5.53Z" data-index="19"></path>
  <path class="cls-2" d="M449.32,269.6c-4.07-1.58-11.89-6.06-14.25-.36,0,2.66,9.97,3.91,12.69,5.31,9.68,4.95,5.38,16.9-4.11,18.21-6.37.88-12.06-.54-17.49-3.75l3.47-5.83c2.89.18,4.34,2.41,7.41,2.84,2.8.39,10.03.62,7.44-3.69-2.08-3.45-16.19-1.03-17.58-10.91-1.7-12.13,18.7-15.19,25.35-6.68l-2.93,4.87Z" data-index="20"></path>
  <path class="cls-2" d="M363.95,263.63l-3.45,5.93c-2.57-1.74-10.06-4.72-12.34-1.9l-.74,2.32c0,1.35.12.91.99,1.32,4.51,2.13,15.02,1.84,16.25,8.44,2.34,12.53-10.31,15.02-19.84,12.36-6.5-1.81-8.62-4.64-2.96-9.7,2.38,2.69,13.48,6.62,14.62,1.78.14-.58.17-2.07-.11-2.51-1.53-2.38-18.06-.05-17.14-12.43.84-11.36,17.52-10.92,24.72-5.61Z" data-index="21"></path>
  <path class="cls-2" d="M371.45,268.1l-4.51-.43v-7.06s4.51,0,4.51,0v-8.25s8.99,0,8.99,0v8.25s5.99,0,5.99,0l-.33,6.79-5.67.7c1.12,5.54-3.7,20.28,5.99,16.47l.65,7.39c-4.4,1.35-10.66,2.1-13.72-2.17-.36-.5-1.9-3.83-1.9-4.09v-17.6Z" data-index="22"></path>
  <path class="cls-2" d="M214.93,203.32c.61-1.99,7.19-.84,8.99-1.13l.74,4.49c1.33-3.85,6.04-4.97,9.75-4.49l-.33,7.54c-.44.62-10.16,1.3-10.16,4.07v20.59h-8.99v-31.08Z" data-index="23"></path>
  <path class="cls-2" d="M354.97,202.95l7.9-.56,1.47,2.82c3.57-1.59,5.74-3.91,10.1-3.01l-.33,7.54c-.44.62-10.16,1.3-10.16,4.07v20.59h-8.99v-31.45Z" data-index="24"></path>
  <path class="cls-2" d="M113.08,292.07h-8.99s.75-31.46.75-31.46h8.25s.37,3.74.37,3.74c2.34-2.89,5.55-4.6,9.36-4.49l.02,7.81c-2.15.19-9.75,1.65-9.75,4.54v19.85Z" data-index="25"></path>
  <path class="cls-1" d="M403.53,361.9c1.59-.08,8.28.43,8.35,1.69-5.16,7.69,2.57,7.81,5.58,13.16,7.13,12.66-5.96,26.63-19.04,22.03-7.21-2.53-4.21-5.93-6.39-10.09-.98-1.86-4.9-2.57-6-6.73-2.86-10.85,7.31-19.56,17.49-20.06Z" data-index="26"></path>
  <path class="cls-1" d="M436.43,431.18c-9.21,4.14-7.54-5.28-7.3-11.42.37-9.68,2.47-19.41,1.48-29.21-.86-8.51-7.85-11.68-6.53-22.28,2.08-16.8,18.26-14.55,18.58,2.06.16,8.36-5.93,12.36-6.73,18.03-.66,4.67-.27,12.96-.1,17.94.15,4.3,2.9,22.6.6,24.88Z" data-index="27"></path>
  <path class="cls-1" d="M368.45,357.97v20.97h1.5v-20.97h1.49c-.49,1.17.75,2.8.75,3.37v17.6h1.5v-20.97h1.5v20.97c1.75.1,1.32.26,1.5-1.11.5-3.94-.39-8.69,0-12.74l1.85-7.11c1.32.88,1.08,2,1.17,3.32.34,4.74-.08,10.2-.07,15.05,0,3.42,1.5,6.16-.38,10.04-.98,2.02-3.94,2.5-4.14,4.14-.69,10.3,1.18,20.52,1.55,30.74.17,4.72,1.12,14.32-6.74,10.48-2.27-1.11-1.61-9.36-1.52-12.01.19-5.81,3.31-26.99.84-30.73-1.36-2.06-4.34-1.7-4.49-6l1.44-25.03h2.24Z" data-index="28"></path>
  <path class="cls-1" d="M385.31,403.65h35.2c.37,0,1.95,1.88,1.91,2.66.4.96-1.36,3.33-1.91,3.33h-35.2c-.37,0-1.95-1.88-1.91-2.66l1.91-3.33Z" data-index="29"></path>
  <path class="cls-1" d="M384.38,414.32c2.72-2.32,12.97-.17,16.62-.15,4.73.03,16.78-1.96,19.86.36,2.89,2.17,1.38,4.45-1.81,4.89-5.86.79-26.38.77-32.27,0-3.01-.39-4.59-3.21-2.39-5.09Z" data-index="30"></path>
  <path class="cls-1" d="M74.14,269.6v-11.98h13.11c2.25,0,4.36,6.42,2.54,9.28-.26.41-3.08,2.7-3.29,2.7h-12.36Z" data-index="31"></path>
  <path class="cls-1" d="M408.68,209.85c3.01-.69,8.77-.15,9.8,3.36,1.08,3.68,1.07,12.69-3.55,14.11-13.76,4.23-14.14-15.68-6.25-17.47Z" data-index="32"></path>
  <path class="cls-1" d="M288.86,209.85c10.1-2.28,12.46,4.94,10.54,13.53-1.38,6.19-12.27,6.02-14.87-.53-1.61-4.06-.56-11.89,4.33-13Z" data-index="33"></path>
  <path class="cls-1" d="M240.61,269.81c3.63-4.44,12.56-2.85,13.83,3.33,2.42,11.8-9.61,16.76-14.09,8.85-1.15-2.02-1.26-10.33.26-12.18Z" data-index="34"></path>
  <path class="cls-1" d="M328.54,209.85c13.61-4.02,15.54,18.27,2.84,17.88-10.13-.31-9.34-15.96-2.84-17.88Z" data-index="35"></path>
  <path class="cls-1" d="M400.89,283.6c-8.5-7.51,3.53-23.41,11.33-13.2,6.8,8.91-3.95,19.72-11.33,13.2Z" data-index="36"></path>
  <path class="cls-1" d="M457.57,215.68h-14.98c.91-9.77,14.77-10.04,14.98,0Z" data-index="37"></path>
  <path class="cls-1" d="M200.7,215.68h-14.98c.55-9.95,14.85-9.95,14.98,0Z" data-index="38"></path>
  <path class="cls-1" d="M249.91,220.33c11.53-3.32,13.27,8.93,4.3,9.54-7.52.51-9.53-8.03-4.3-9.54Z" data-index="39"></path>
  <path class="cls-1" d="M126.56,215.68h-14.98c1.58-9.69,14.69-10.35,14.98,0Z" data-index="40"></path>
  <path class="cls-1" d="M327.27,273.35h-14.23c.2-9.3,13.72-8.96,14.23,0Z" data-index="41"></path>
  <path class="cls-1" d="M134.8,273.35c1.14-9.15,14.62-9.53,14.98,0h-14.98Z" data-index="42"></path>
</svg>