<svg width="200" height="160" viewBox="0 0 200 160" xmlns="http://www.w3.org/2000/svg">
  <!-- Superficie principal (vista aérea de la mesa) -->
  <rect x="20" y="20" width="160" height="120" rx="10" fill="#E0E0E0" stroke="#888888" stroke-width="2" />

  <!-- Sombra interna para dar profundidad -->
  <rect x="25" y="25" width="150" height="110" rx="8" fill="none" stroke="#CCCCCC" stroke-width="1" />

  <!-- Boquetón (recorte) en el perímetro -->
  <path d="M 70,140
           A 30,30 0 0 1 130,140
           L 130,120
           A 20,20 0 0 0 70,120
           Z"
        fill="#FFFFFF"
        stroke="#666666"
        stroke-width="2" />

  <!-- Detalles de profundidad en el boquetón -->
  <path d="M 75,138
           A 25,25 0 0 1 125,138
           L 125,122
           A 15,15 0 0 0 75,122
           Z"
        fill="none"
        stroke="#AAAAAA"
        stroke-width="1" />

  <!-- Líneas de detalle en la superficie -->
  <line x1="40" y1="40" x2="160" y2="40" stroke="#CCCCCC" stroke-width="1" />
  <line x1="40" y1="60" x2="160" y2="60" stroke="#CCCCCC" stroke-width="1" />
  <line x1="40" y1="80" x2="160" y2="80" stroke="#CCCCCC" stroke-width="1" />
  <line x1="40" y1="100" x2="160" y2="100" stroke="#CCCCCC" stroke-width="1" />

  <!-- Texto descriptor -->
  <text x="100" y="150" font-family="Arial" font-size="10" text-anchor="middle" fill="#000">
    Boquetón Perimétrico
  </text>
</svg>