<svg width="200" height="160" viewBox="0 0 200 160" xmlns="http://www.w3.org/2000/svg">
  <!-- Superficie principal de la mesa (vista aérea) -->
  <rect x="20" y="20" width="160" height="120" rx="10" fill="#E0E0E0" stroke="#888888" stroke-width="2" />

  <!-- Sombra interna para dar profundidad -->
  <rect x="25" y="25" width="150" height="110" rx="8" fill="none" stroke="#CCCCCC" stroke-width="1" />

  <!-- Cajeado para columna (recorte en forma de U) -->
  <path d="M 120,20
           L 120,60
           A 20,20 0 0 0 80,60
           L 80,20"
        fill="#FFFFFF"
        stroke="#666666"
        stroke-width="2" />

  <!-- Columna (representación simplificada) -->
  <circle cx="100" cy="40" r="25" fill="#BBBBBB" stroke="#999999" stroke-width="1" />
  <circle cx="100" cy="40" r="20" fill="#AAAAAA" stroke="#888888" stroke-width="1" />

  <!-- Detalles de profundidad en el cajeado -->
  <path d="M 118,22
           L 118,58
           A 18,18 0 0 0 82,58
           L 82,22"
        fill="none"
        stroke="#AAAAAA"
        stroke-width="1" />

  <!-- Líneas de detalle en la superficie de la mesa -->
  <line x1="40" y1="60" x2="160" y2="60" stroke="#CCCCCC" stroke-width="1" />
  <line x1="40" y1="80" x2="160" y2="80" stroke="#CCCCCC" stroke-width="1" />
  <line x1="40" y1="100" x2="160" y2="100" stroke="#CCCCCC" stroke-width="1" />
  <line x1="40" y1="120" x2="160" y2="120" stroke="#CCCCCC" stroke-width="1" />

  <!-- Texto descriptor
  <text x="100" y="150" font-family="Arial" font-size="10" text-anchor="middle" fill="#000">
    Cajeado de Columna
  </text> -->
</svg>