<svg width="200" height="160" viewBox="0 0 200 160" xmlns="http://www.w3.org/2000/svg">
  <!-- Base del kit lavamanos -->
  <rect x="40" y="30" width="120" height="80" rx="5" fill="#E0E0E0" stroke="#888888" stroke-width="2" />

  <!-- Fregadero principal (vista aérea) -->
  <ellipse cx="100" cy="60" rx="30" ry="20" fill="#FFFFFF" stroke="#666666" stroke-width="2" />

  <!-- Desagüe -->
  <circle cx="100" cy="60" r="3" fill="#999999" stroke="#666666" stroke-width="1" />

  <!-- Grifo -->
  <rect x="95" y="30" width="10" height="5" rx="2" fill="#A0A0A0" stroke="#808080" stroke-width="1" />
  <rect x="97" y="35" width="6" height="10" rx="1" fill="#A0A0A0" stroke="#808080" stroke-width="1" />

  <!-- Pedal izquierdo (agua fría) -->
  <rect x="50" y="120" width="30" height="15" rx="3" fill="#A0C8E0" stroke="#666666" stroke-width="2" />
  <rect x="55" y="125" width="20" height="5" rx="2" fill="#80A8C0" stroke="#666666" stroke-width="1" />

  <!-- Pedal derecho (agua caliente) -->
  <rect x="120" y="120" width="30" height="15" rx="3" fill="#E0A0A0" stroke="#666666" stroke-width="2" />
  <rect x="125" y="125" width="20" height="5" rx="2" fill="#C08080" stroke="#666666" stroke-width="1" />

  <!-- Tuberías desde los pedales -->
  <path d="M 65 120 L 65 100 C 65 90, 90 90, 95 80" stroke="#A0A0A0" stroke-width="2" fill="none" />
  <path d="M 135 120 L 135 100 C 135 90, 110 90, 105 80" stroke="#A0A0A0" stroke-width="2" fill="none" />

  <!-- Conexiones a la base del lavamanos -->
  <path d="M 95 80 L 95 70" stroke="#A0A0A0" stroke-width="2" fill="none" />
  <path d="M 105 80 L 105 70" stroke="#A0A0A0" stroke-width="2" fill="none" />

  <!-- Etiquetas para los pedales -->
  <text x="65" y="133" font-family="Arial" font-size="6" text-anchor="middle" fill="#000">Frío</text>
  <text x="135" y="133" font-family="Arial" font-size="6" text-anchor="middle" fill="#000">Caliente</text>

  <!-- Texto descriptor
  <text x="100" y="150" font-family="Arial" font-size="10" text-anchor="middle" fill="#000">
    Kit Lavamanos Pedal Doble
  </text> -->
</svg>