<svg width="300" height="200" viewBox="0 0 300 200" xmlns="http://www.w3.org/2000/svg">
  <!-- Definitions for metallic gradients -->
  <defs>
    <linearGradient id="metalGradient" x1="0%" y1="0%" x2="100%" y2="100%">
      <stop offset="0%" stop-color="#A8A8A8" />
      <stop offset="25%" stop-color="#EFEFEF" />
      <stop offset="50%" stop-color="#CCCCCC" />
      <stop offset="75%" stop-color="#EFEFEF" />
      <stop offset="100%" stop-color="#A8A8A8" />
    </linearGradient>
    <linearGradient id="legGradient" x1="0%" y1="0%" x2="100%" y2="100%">
      <stop offset="0%" stop-color="#707070" />
      <stop offset="50%" stop-color="#A0A0A0" />
      <stop offset="100%" stop-color="#707070" />
    </linearGradient>
  </defs>
  
  <!-- Sombra de la mesa -->
  <rect x="35" y="35" width="230" height="130" rx="5" ry="5" fill="#555555" filter="blur(3px)" />
  
  <!-- Superficie de la mesa (central - standalone) -->
  <rect x="30" y="30" width="230" height="130" rx="5" ry="5" fill="url(#metalGradient)" stroke="#555555" stroke-width="2" />
  
  <!-- Textura del metal (líneas sutiles) -->
  <g stroke="#CCCCCC" stroke-width="1" opacity="0.3">
    <line x1="50" y1="40" x2="50" y2="150" />
    <line x1="90" y1="40" x2="90" y2="150" />
    <line x1="130" y1="40" x2="130" y2="150" />
    <line x1="170" y1="40" x2="170" y2="150" />
    <line x1="210" y1="40" x2="210" y2="150" />
    <line x1="250" y1="40" x2="250" y2="150" />
  </g>
  
  <!-- Highlights para efecto metálico -->
  <rect x="30" y="30" width="230" height="20" rx="5" ry="5" fill="white" opacity="0.2" />
  <rect x="30" y="140" width="230" height="20" rx="5" ry="5" fill="#555555" opacity="0.1" />
  
  <!-- Representación de las patas (pequeños cuadrados en las esquinas) -->
  <rect x="40" y="40" width="10" height="10" fill="url(#legGradient)" stroke="#555555" stroke-width="1" />
  <rect x="240" y="40" width="10" height="10" fill="url(#legGradient)" stroke="#555555" stroke-width="1" />
  <rect x="40" y="140" width="10" height="10" fill="url(#legGradient)" stroke="#555555" stroke-width="1" />
  <rect x="240" y="140" width="10" height="10" fill="url(#legGradient)" stroke="#555555" stroke-width="1" />
</svg>