<svg width="300" height="200" viewBox="0 0 300 200" xmlns="http://www.w3.org/2000/svg">
  <!-- Definitions for metallic gradients -->
  <defs>
    <linearGradient id="metalGradient" x1="0%" y1="0%" x2="100%" y2="100%">
      <stop offset="0%" stop-color="#A8A8A8" />
      <stop offset="25%" stop-color="#EFEFEF" />
      <stop offset="50%" stop-color="#CCCCCC" />
      <stop offset="75%" stop-color="#EFEFEF" />
      <stop offset="100%" stop-color="#A8A8A8" />
    </linearGradient>
    <linearGradient id="legGradient" x1="0%" y1="0%" x2="100%" y2="100%">
      <stop offset="0%" stop-color="#707070" />
      <stop offset="50%" stop-color="#A0A0A0" />
      <stop offset="100%" stop-color="#707070" />
    </linearGradient>
  </defs>
  
  <!-- Sombras de la mesa con forma de U -->
  <rect x="35" y="35" width="60" height="130" fill="#555555" filter="blur(3px)" /> <!-- Lado izquierdo -->
  <rect x="35" y="125" width="230" height="40" fill="#555555" filter="blur(3px)" /> <!-- Base -->
  <rect x="205" y="35" width="60" height="130" fill="#555555" filter="blur(3px)" /> <!-- Lado derecho -->

  <!-- Superficie de la mesa con forma de U (MMM - todos murales) -->
  <rect x="30" y="30" width="60" height="130" fill="url(#metalGradient)" stroke="#555555" stroke-width="2" /> <!-- Lado izquierdo -->
  <rect x="30" y="120" width="230" height="40" fill="url(#metalGradient)" stroke="#555555" stroke-width="2" /> <!-- Base -->
  <rect x="200" y="30" width="60" height="130" fill="url(#metalGradient)" stroke="#555555" stroke-width="2" /> <!-- Lado derecho -->

  <!-- Textura del metal (líneas sutiles) para la sección vertical izquierda -->
  <g stroke="#CCCCCC" stroke-width="1" opacity="0.3">
    <line x1="45" y1="40" x2="45" y2="150" />
    <line x1="65" y1="40" x2="65" y2="150" />
  </g>
  
  <!-- Textura del metal (líneas sutiles) para la sección horizontal inferior -->
  <g stroke="#CCCCCC" stroke-width="1" opacity="0.3">
    <line x1="70" y1="135" x2="190" y2="135" />
    <line x1="70" y1="150" x2="190" y2="150" />
  </g>

  <!-- Textura del metal (líneas sutiles) para la sección vertical derecha -->
  <g stroke="#CCCCCC" stroke-width="1" opacity="0.3">
    <line x1="215" y1="40" x2="215" y2="150" />
    <line x1="235" y1="40" x2="235" y2="150" />
  </g>
  
  <!-- Highlights para efecto metálico -->
  <rect x="30" y="30" width="60" height="15" fill="white" opacity="0.2" /> <!-- Highlight superior izquierdo -->
  <rect x="30" y="120" width="230" height="10" fill="white" opacity="0.2" /> <!-- Highlight superior base -->
  <rect x="200" y="30" width="60" height="15" fill="white" opacity="0.2" /> <!-- Highlight superior derecho -->
  
  <!-- Representación de las patas (menos patas para mural) -->
  <rect x="40" y="140" width="10" height="10" fill="url(#legGradient)" stroke="#555555" stroke-width="1" />
  <rect x="170" y="140" width="10" height="10" fill="url(#legGradient)" stroke="#555555" stroke-width="1" />
  <rect x="210" y="140" width="10" height="10" fill="url(#legGradient)" stroke="#555555" stroke-width="1" />
  
  <!-- Indicador de pared (línea gruesa en la parte exterior de las secciones murales) -->
  <rect x="30" y="30" width="10" height="130" fill="#555555" opacity="0.7" /> <!-- Lado izquierdo exterior (mural) -->
  <rect x="30" y="150" width="230" height="10" fill="#555555" opacity="0.7" /> <!-- Base exterior (mural) -->
  <rect x="250" y="30" width="10" height="130" fill="#555555" opacity="0.7" /> <!-- Lado derecho exterior (mural) -->
</svg>