<svg width="300" height="200" viewBox="0 0 300 200" xmlns="http://www.w3.org/2000/svg">
  <!-- Sombras de la mesa con forma de U modificada con esquina adicional -->
  <rect x="35" y="35" width="60" height="130" fill="#CCCCCC" filter="blur(3px)" /> <!-- Lado izquierdo -->
  <rect x="35" y="125" width="230" height="40" fill="#CCCCCC" filter="blur(3px)" /> <!-- Base -->
  <rect x="205" y="35" width="60" height="130" fill="#CCCCCC" filter="blur(3px)" /> <!-- Lado derecho -->
  <rect x="140" y="35" width="65" height="40" fill="#CCCCCC" filter="blur(3px)" /> <!-- Esquina adicional -->
  
  <!-- Superficie de la mesa con forma de U modificada con esquina adicional -->
  <rect x="30" y="30" width="60" height="130" fill="#F0D9B5" stroke="#8B4513" stroke-width="2" /> <!-- Lado izquierdo -->
  <rect x="30" y="120" width="230" height="40" fill="#F0D9B5" stroke="#8B4513" stroke-width="2" /> <!-- Base -->
  <rect x="200" y="30" width="60" height="130" fill="#F0D9B5" stroke="#8B4513" stroke-width="2" /> <!-- Lado derecho -->
  <rect x="135" y="30" width="65" height="40" fill="#F0D9B5" stroke="#8B4513" stroke-width="2" /> <!-- Esquina adicional -->
  
  <!-- Textura de la madera (líneas sutiles) para la sección vertical izquierda -->
  <g stroke="#D9B382" stroke-width="1" opacity="0.5">
    <line x1="45" y1="40" x2="45" y2="150" />
    <line x1="65" y1="40" x2="65" y2="150" />
  </g>
  
  <!-- Textura de la madera (líneas sutiles) para la sección horizontal inferior -->
  <g stroke="#D9B382" stroke-width="1" opacity="0.5">
    <line x1="70" y1="135" x2="190" y2="135" />
    <line x1="70" y1="150" x2="190" y2="150" />
  </g>
  
  <!-- Textura de la madera (líneas sutiles) para la sección vertical derecha -->
  <g stroke="#D9B382" stroke-width="1" opacity="0.5">
    <line x1="215" y1="40" x2="215" y2="150" />
    <line x1="235" y1="40" x2="235" y2="150" />
  </g>
  
  <!-- Textura de la madera (líneas sutiles) para la esquina adicional -->
  <g stroke="#D9B382" stroke-width="1" opacity="0.5">
    <line x1="150" y1="40" x2="190" y2="40" />
    <line x1="150" y1="55" x2="190" y2="55" />
  </g>
  
  <!-- Representación de las patas (pequeños cuadrados en las esquinas) -->
  <rect x="40" y="40" width="10" height="10" fill="#8B4513" /> <!-- Izquierda superior -->
  <rect x="40" y="140" width="10" height="10" fill="#8B4513" /> <!-- Izquierda inferior -->
  <rect x="140" y="40" width="10" height="10" fill="#8B4513" /> <!-- Esquina adicional izquierda -->
  <rect x="190" y="40" width="10" height="10" fill="#8B4513" /> <!-- Esquina adicional derecha -->
  <rect x="80" y="140" width="10" height="10" fill="#8B4513" /> <!-- Base izquierda -->
  <rect x="170" y="140" width="10" height="10" fill="#8B4513" /> <!-- Base centro -->
  <rect x="210" y="40" width="10" height="10" fill="#8B4513" /> <!-- Derecha superior -->
  <rect x="210" y="140" width="10" height="10" fill="#8B4513" /> <!-- Derecha inferior -->
</svg>
