<svg width="200" height="160" viewBox="0 0 200 160" xmlns="http://www.w3.org/2000/svg">
  <!-- Mesa rectangular (vista aérea) -->
  <rect x="40" y="40" width="120" height="80" rx="2" fill="#D2B48C" stroke="#A67D3D" stroke-width="2" />

  <!-- Peto lateral (barrera en el lado de la mesa) -->
  <rect x="38" y="38" width="4" height="84" rx="1" fill="#E0E0E0" stroke="#888888" stroke-width="1" />

  <!-- Soportes de fijación del peto a la mesa -->
  <rect x="40" y="45" width="8" height="6" rx="1" fill="#A0A0A0" stroke="#888888" stroke-width="1" />
  <rect x="40" y="75" width="8" height="6" rx="1" fill="#A0A0A0" stroke="#888888" stroke-width="1" />
  <rect x="40" y="105" width="8" height="6" rx="1" fill="#A0A0A0" stroke="#888888" stroke-width="1" />

  <!-- Sombreado para dar profundidad al peto -->
  <rect x="40" y="38" width="2" height="84" rx="0" fill="#D0D0D0" stroke="none" />

  <!-- Detalles de la textura de la mesa -->
  <path d="M 40 40 L 160 40" stroke="#C0A080" stroke-width="0.5" stroke-opacity="0.5" />
  <path d="M 40 60 L 160 60" stroke="#C0A080" stroke-width="0.5" stroke-opacity="0.5" />
  <path d="M 40 80 L 160 80" stroke="#C0A080" stroke-width="0.5" stroke-opacity="0.5" />
  <path d="M 40 100 L 160 100" stroke="#C0A080" stroke-width="0.5" stroke-opacity="0.5" />
  <path d="M 40 120 L 160 120" stroke="#C0A080" stroke-width="0.5" stroke-opacity="0.5" />

  <!-- Indicación de altura del peto (línea punteada) -->
  <line x1="30" y1="38" x2="30" y2="122" stroke="#666666" stroke-width="1" stroke-dasharray="2,2" />
  <line x1="28" y1="38" x2="32" y2="38" stroke="#666666" stroke-width="1" />
  <line x1="28" y1="122" x2="32" y2="122" stroke="#666666" stroke-width="1" />
  <text x="20" y="80" font-family="Arial" font-size="8" text-anchor="middle" fill="#666666">h</text>

  <!-- Texto descriptor -->
  <text x="100" y="150" font-family="Arial" font-size="10" text-anchor="middle" fill="#000">
    Peto Lateral
  </text>
</svg>