<svg xmlns="http://www.w3.org/2000/svg" viewBox="0 0 512 512">
    <!-- Definiciones de gradientes para efecto metálico -->
    <defs>
        <linearGradient id="metalSuperficie" x1="0%" y1="0%" x2="100%" y2="100%">
            <stop offset="0%" stop-color="#E8E8E8" />
            <stop offset="20%" stop-color="#F5F5F5" />
            <stop offset="50%" stop-color="#E0E0E0" />
            <stop offset="80%" stop-color="#D8D8D8" />
            <stop offset="100%" stop-color="#CCCCCC" />
        </linearGradient>
        <linearGradient id="metalLateral" x1="0%" y1="0%" x2="100%" y2="100%">
            <stop offset="0%" stop-color="#B8B8B8" />
            <stop offset="50%" stop-color="#D0D0D0" />
            <stop offset="100%" stop-color="#A8A8A8" />
        </linearGradient>
        <linearGradient id="metalFrontal" x1="0%" y1="0%" x2="100%" y2="100%">
            <stop offset="0%" stop-color="#C8C8C8" />
            <stop offset="50%" stop-color="#E0E0E0" />
            <stop offset="100%" stop-color="#B8B8B8" />
        </linearGradient>
        <linearGradient id="aceroInox" x1="0%" y1="0%" x2="100%" y2="100%">
            <stop offset="0%" stop-color="#D0D0D0" />
            <stop offset="25%" stop-color="#F0F0F0" />
            <stop offset="50%" stop-color="#D8D8D8" />
            <stop offset="75%" stop-color="#E8E8E8" />
            <stop offset="100%" stop-color="#C0C0C0" />
        </linearGradient>
        <linearGradient id="aceroFregadero" x1="0%" y1="0%" x2="100%" y2="100%">
            <stop offset="0%" stop-color="#B0B0B0" />
            <stop offset="50%" stop-color="#D0D0D0" />
            <stop offset="100%" stop-color="#A0A0A0" />
        </linearGradient>
        <linearGradient id="cromado" x1="0%" y1="0%" x2="100%" y2="100%">
            <stop offset="0%" stop-color="#B0B0B0" />
            <stop offset="25%" stop-color="#F0F0F0" />
            <stop offset="50%" stop-color="#B0B0B0" />
            <stop offset="75%" stop-color="#E0E0E0" />
            <stop offset="100%" stop-color="#909090" />
        </linearGradient>
    </defs>

    <!-- Estructura base y patas -->
    <polygon points="100,320 170,280 410,280 340,320" fill="url(#metalFrontal)" stroke="#888888" stroke-width="2"/>
    <polygon points="100,320 100,380 340,380 340,320" fill="url(#metalSuperficie)" stroke="#888888" stroke-width="2"/>
    <polygon points="340,320 410,280 410,340 340,380" fill="url(#metalLateral)" stroke="#888888" stroke-width="2"/>

    <!-- Patas metálicas reforzadas con detalles -->
    <polygon points="120,380 120,430 140,430 140,380" fill="url(#metalLateral)" stroke="#888888" stroke-width="2"/>
    <polygon points="300,380 300,430 320,430 320,380" fill="url(#metalLateral)" stroke="#888888" stroke-width="2"/>
    <polygon points="370,343 370,390 390,373 390,325" fill="url(#metalLateral)" stroke="#888888" stroke-width="2"/>
    <polygon points="190,380 190,430 210,430 210,380" fill="url(#metalLateral)" stroke="#888888" stroke-width="2"/>

    <!-- Bases de las patas con niveladores -->
    <polygon points="120,430 140,430 140,435 120,435" fill="#707070" stroke="#606060" stroke-width="1"/>
    <polygon points="300,430 320,430 320,435 300,435" fill="#707070" stroke="#606060" stroke-width="1"/>
    <polygon points="370,390 390,373 390,378 370,395" fill="#707070" stroke="#606060" stroke-width="1"/>
    <polygon points="190,430 210,430 210,435 190,435" fill="#707070" stroke="#606060" stroke-width="1"/>

    <!-- Superficie de trabajo con peto trasero -->
    <polygon points="100,280 100,260 170,220 410,220 410,280 340,320" fill="url(#aceroInox)" stroke="#888888" stroke-width="2"/>
    <polygon points="170,220 170,190 410,190 410,220" fill="url(#metalLateral)" stroke="#888888" stroke-width="2"/>

    <!-- Fregadero/cubeta principal -->
    <polygon points="240,240 320,240 305,255 225,255" fill="url(#aceroFregadero)" stroke="#888888" stroke-width="2"/>
    <polygon points="225,255 225,275 305,275 305,255" fill="#A0A0A0" stroke="#888888" stroke-width="2"/>

    <!-- Segunda cubeta más pequeña -->
    <polygon points="330,240 380,240 370,250 320,250" fill="url(#aceroFregadero)" stroke="#888888" stroke-width="2"/>
    <polygon points="320,250 320,265 370,265 370,250" fill="#A0A0A0" stroke="#888888" stroke-width="2"/>

    <!-- Grifo profesional con manguera extensible -->
    <path d="M270,190 L270,205 M265,195 C265,190 275,190 275,195 L275,205 C275,210 265,210 265,205 Z"
        fill="none" stroke="url(#cromado)" stroke-width="3"/>
    <path d="M270,205 Q280,215 270,225 L270,240"
        fill="none" stroke="url(#cromado)" stroke-width="2.5" stroke-linecap="round"/>
    <circle cx="270" cy="240" r="3" fill="#909090" stroke="#707070" stroke-width="1"/>

    <!-- Desagües -->
    <circle cx="265" cy="265" r="5" fill="#707070" stroke="#606060" stroke-width="1"/>
    <circle cx="265" cy="265" r="2" fill="#505050"/>
    <circle cx="345" cy="258" r="4" fill="#707070" stroke="#606060" stroke-width="1"/>
    <circle cx="345" cy="258" r="1.5" fill="#505050"/>

    <!-- Cajones con tiradores profesionales -->
    <polygon points="140,320 140,365 220,365 220,320" fill="url(#metalFrontal)" stroke="#888888" stroke-width="2"/>
    <polygon points="220,320 220,365 240,345 240,300" fill="url(#metalLateral)" stroke="#888888" stroke-width="2"/>

    <!-- Tiradores de cajones tipo barra -->
    <line x1="160" y1="332" x2="200" y2="332" stroke="#606060" stroke-width="2"/>
    <line x1="158" y1="330" x2="158" y2="334" stroke="#606060" stroke-width="4" stroke-linecap="round"/>
    <line x1="202" y1="330" x2="202" y2="334" stroke="#606060" stroke-width="4" stroke-linecap="round"/>

    <line x1="160" y1="353" x2="200" y2="353" stroke="#606060" stroke-width="2"/>
    <line x1="158" y1="351" x2="158" y2="355" stroke="#606060" stroke-width="4" stroke-linecap="round"/>
    <line x1="202" y1="351" x2="202" y2="355" stroke="#606060" stroke-width="4" stroke-linecap="round"/>

    <!-- Separación de cajones -->
    <polygon points="140,342 140,343 220,343 220,342" fill="#A0A0A0" stroke="#888888" stroke-width="1"/>

    <!-- Armario con puertas y tiradores profesionales -->
    <polygon points="240,320 240,370 320,370 320,320" fill="url(#metalFrontal)" stroke="#888888" stroke-width="2"/>
    <polygon points="320,320 340,300 340,350 320,370" fill="url(#metalLateral)" stroke="#888888" stroke-width="2"/>
    <line x1="280" y1="320" x2="280" y2="370" stroke="#888888" stroke-width="1"/>

    <!-- Tiradores de puertas tipo barra vertical -->
    <line x1="265" y1="335" x2="265" y2="355" stroke="#606060" stroke-width="2"/>
    <line x1="263" y1="333" x2="267" y2="333" stroke="#606060" stroke-width="4" stroke-linecap="round"/>
    <line x1="263" y1="357" x2="267" y2="357" stroke="#606060" stroke-width="4" stroke-linecap="round"/>

    <line x1="295" y1="335" x2="295" y2="355" stroke="#606060" stroke-width="2"/>
    <line x1="293" y1="333" x2="297" y2="333" stroke="#606060" stroke-width="4" stroke-linecap="round"/>
    <line x1="293" y1="357" x2="297" y2="357" stroke="#606060" stroke-width="4" stroke-linecap="round"/>

    <!-- Estante inferior reforzado -->
    <polygon points="120,400 320,400 320,410 120,410" fill="url(#metalSuperficie)" stroke="#888888" stroke-width="2"/>
    <polygon points="320,400 340,380 340,390 320,410" fill="url(#metalLateral)" stroke="#888888" stroke-width="2"/>

    <!-- Refuerzos metálicos y estructura -->
    <line x1="130" y1="380" x2="130" y2="400" stroke="#A0A0A0" stroke-width="2"/>
    <line x1="200" y1="380" x2="200" y2="400" stroke="#A0A0A0" stroke-width="2"/>
    <line x1="310" y1="380" x2="310" y2="400" stroke="#A0A0A0" stroke-width="2"/>
    <line x1="380" y1="340" x2="380" y2="360" stroke="#A0A0A0" stroke-width="2"/>

    <!-- Travesaños horizontales de refuerzo -->
    <line x1="120" y1="390" x2="190" y2="390" stroke="#A0A0A0" stroke-width="2"/>
    <line x1="210" y1="390" x2="300" y2="390" stroke="#A0A0A0" stroke-width="2"/>
    <line x1="320" y1="390" x2="340" y2="370" stroke="#A0A0A0" stroke-width="2"/>

    <!-- Tabla de corte sobre la superficie -->
    <polygon points="170,240 220,240 210,250 160,250" fill="#D8C0A0" stroke="#B0A090" stroke-width="1.5"/>
    <polygon points="160,250 160,255 210,255 210,250" fill="#C0A080" stroke="#B0A090" stroke-width="1.5"/>
    <line x1="175" y1="245" x2="205" y2="245" stroke="#B0A090" stroke-width="0.5"/>
    <line x1="173" y1="248" x2="203" y2="248" stroke="#B0A090" stroke-width="0.5"/>

    <!-- Detalles del peto trasero -->
    <line x1="170" y1="205" x2="410" y2="205" stroke="#A0A0A0" stroke-width="1"/>
    <line x1="190" y1="195" x2="190" y2="215" stroke="#A0A0A0" stroke-width="1"/>
    <line x1="290" y1="195" x2="290" y2="215" stroke="#A0A0A0" stroke-width="1"/>
    <line x1="390" y1="195" x2="390" y2="215" stroke="#A0A0A0" stroke-width="1"/>

    <!-- Brillos y reflejos metálicos -->
    <line x1="200" y1="230" x2="230" y2="230" stroke="#FFFFFF" stroke-width="1" opacity="0.7"/>
    <line x1="330" y1="230" x2="380" y2="230" stroke="#FFFFFF" stroke-width="1" opacity="0.7"/>
    <line x1="150" y1="300" x2="190" y2="300" stroke="#FFFFFF" stroke-width="1" opacity="0.6"/>
    <line x1="250" y1="340" x2="270" y2="340" stroke="#FFFFFF" stroke-width="1" opacity="0.6"/>
    <line x1="120" y1="405" x2="320" y2="405" stroke="#FFFFFF" stroke-width="0.5" opacity="0.5"/>

    <!-- Esquinas redondeadas de la mesa (efecto visual) -->
    <circle cx="170" cy="220" r="3" fill="#D8D8D8" stroke="#888888" stroke-width="1"/>
    <circle cx="410" cy="220" r="3" fill="#D8D8D8" stroke="#888888" stroke-width="1"/>

    <!-- Texturas metálicas sutiles en la superficie -->
    <line x1="180" y1="240" x2="200" y2="240" stroke="#C0C0C0" stroke-width="0.5" opacity="0.3"/>
    <line x1="330" y1="260" x2="350" y2="260" stroke="#C0C0C0" stroke-width="0.5" opacity="0.3"/>
    <line x1="170" y1="350" x2="190" y2="350" stroke="#C0C0C0" stroke-width="0.5" opacity="0.3"/>

    <!-- Líneas de soldadura -->
    <line x1="170" y1="220" x2="170" y2="280" stroke="#B0B0B0" stroke-width="1" stroke-dasharray="2,2"/>
    <line x1="100" y1="320" x2="340" y2="320" stroke="#B0B0B0" stroke-width="1" stroke-dasharray="2,2"/>
    <line x1="340" y1="320" x2="340" y2="380" stroke="#B0B0B0" stroke-width="1" stroke-dasharray="2,2"/>

    <!-- Cubeta GastroNorm en la superficie -->
    <polygon points="110,240 150,240 145,250 105,250" fill="url(#aceroFregadero)" stroke="#888888" stroke-width="1.5"/>
    <polygon points="105,250 105,260 145,260 145,250" fill="#A0A0A0" stroke="#888888" stroke-width="1.5"/>
    <rect x="120" y="245" width="10" height="10" fill="none" stroke="#888888" stroke-width="0.5"/>

    <!-- Tornillos y remaches -->
    <circle cx="170" cy="280" r="2" fill="#909090" stroke="#707070" stroke-width="0.5"/>
    <circle cx="340" cy="280" r="2" fill="#909090" stroke="#707070" stroke-width="0.5"/>
    <circle cx="340" cy="320" r="2" fill="#909090" stroke="#707070" stroke-width="0.5"/>
    <circle cx="100" cy="320" r="2" fill="#909090" stroke="#707070" stroke-width="0.5"/>

    <!-- Etiqueta/placa de fabricante -->
    <rect x="250" y="300" width="20" height="10" fill="#D0D0D0" stroke="#888888" stroke-width="0.5"/>
    <line x1="253" y1="303" x2="267" y2="303" stroke="#888888" stroke-width="0.5"/>
    <line x1="253" y1="307" x2="267" y2="307" stroke="#888888" stroke-width="0.5"/>
</svg>