<?xml version="1.0" encoding="UTF-8"?>
<!DOCTYPE svg PUBLIC "-//W3C//DTD SVG 1.1//EN" "http://www.w3.org/Graphics/SVG/1.1/DTD/svg11.dtd">
<svg xmlns="http://www.w3.org/2000/svg" version="1.1" width="528px" height="445px" style="shape-rendering:geometricPrecision; text-rendering:geometricPrecision; image-rendering:optimizeQuality; fill-rule:evenodd; clip-rule:evenodd" xmlns:xlink="http://www.w3.org/1999/xlink">
<g><path style="opacity:1" fill="#019afd" d="M 151.5,14.5 C 161.167,14.5 170.833,14.5 180.5,14.5C 177.642,15.166 174.642,15.8326 171.5,16.5C 175.046,20.5477 179.046,24.0477 183.5,27C 182.833,27.3333 182.167,27.6667 181.5,28C 183.552,31.529 186.552,33.8624 190.5,35C 189.376,35.2492 188.376,35.7492 187.5,36.5C 188.949,37.1719 190.282,37.8386 191.5,38.5C 185.167,38.5 178.833,38.5 172.5,38.5C 171.411,36.8829 169.744,36.0496 167.5,36C 168.902,34.6575 168.569,33.8242 166.5,33.5C 165.558,33.6082 164.725,33.9415 164,34.5C 163.667,33.5 163.333,32.5 163,31.5C 158.592,27.5374 154.759,23.0374 151.5,18C 150.342,16.7393 150.342,15.5726 151.5,14.5 Z"/></g>
<g><path style="opacity:0.999" fill="#3a83fd" d="M 196.5,14.5 C 201.5,14.5 206.5,14.5 211.5,14.5C 211.082,15.2216 210.416,15.7216 209.5,16C 214.458,20.3593 218.791,25.3593 222.5,31C 228.465,33.0973 233.465,35.5973 237.5,38.5C 229.833,38.5 222.167,38.5 214.5,38.5C 213.194,37.5326 212.527,36.1993 212.5,34.5C 209.118,34.2737 206.118,33.2737 203.5,31.5C 204.401,27.7593 203.068,25.7593 199.5,25.5C 197.915,22.0274 196.915,18.3607 196.5,14.5 Z"/></g>
<g><path style="opacity:1" fill="#fd7805" d="M 270.5,14.5 C 275.167,14.5 279.833,14.5 284.5,14.5C 284.047,15.4584 283.381,16.2917 282.5,17C 286.79,21.4918 291.123,25.9918 295.5,30.5C 294.624,31.2508 293.624,31.7508 292.5,32C 293.76,33.113 294.927,33.2797 296,32.5C 296.667,35.1667 297.333,35.1667 298,32.5C 298.333,33.1667 298.667,33.8333 299,34.5C 300,34.1667 301,33.8333 302,33.5C 302.5,34 303,34.5 303.5,35C 301.038,36.2156 298.371,36.8823 295.5,37C 303.677,37.1708 311.677,37.6708 319.5,38.5C 306.829,38.3334 294.162,38.5001 281.5,39C 278.296,42.0359 275.296,45.2026 272.5,48.5C 270.685,47.3702 268.685,46.7036 266.5,46.5C 266.833,48.5 267.167,50.5 267.5,52.5C 264.42,53.1092 262.087,54.7759 260.5,57.5C 255.685,58.0279 251.518,56.3612 248,52.5C 246.013,50.3209 246.18,48.4876 248.5,47C 247.216,46.3162 246.049,46.4829 245,47.5C 243.489,46.436 243.323,45.1026 244.5,43.5C 246.167,41.5 247.833,39.5 249.5,37.5C 251.833,35.8333 253.833,33.8333 255.5,31.5C 258.243,29.7607 260.243,27.4274 261.5,24.5C 264.167,22.5 266.5,20.1667 268.5,17.5C 269.401,16.7095 270.068,15.7095 270.5,14.5 Z"/></g>
<g><path style="opacity:1" fill="#fd8102" d="M 284.5,14.5 C 324.835,14.3333 365.168,14.5 405.5,15C 412.549,19.4869 414.383,25.6535 411,33.5C 392.632,52.0351 374.132,70.3684 355.5,88.5C 355.587,85.4017 355.087,85.0684 354,87.5C 353.781,86.062 353.281,84.7287 352.5,83.5C 350.805,84.2917 349.138,83.9584 347.5,82.5C 346.911,79.7238 345.578,77.3904 343.5,75.5C 340.867,75.5627 338.201,75.2294 335.5,74.5C 346.812,62.854 358.145,51.1874 369.5,39.5C 352.847,38.5005 336.18,38.1672 319.5,38.5C 311.677,37.6708 303.677,37.1708 295.5,37C 298.371,36.8823 301.038,36.2156 303.5,35C 303,34.5 302.5,34 302,33.5C 301,33.8333 300,34.1667 299,34.5C 298.667,33.8333 298.333,33.1667 298,32.5C 297.333,35.1667 296.667,35.1667 296,32.5C 294.927,33.2797 293.76,33.113 292.5,32C 293.624,31.7508 294.624,31.2508 295.5,30.5C 291.123,25.9918 286.79,21.4918 282.5,17C 283.381,16.2917 284.047,15.4584 284.5,14.5 Z"/></g>
<g><path style="opacity:1" fill="#5976f7" d="M 211.5,14.5 C 228.833,14.5 246.167,14.5 263.5,14.5C 257.021,15.4907 250.354,15.824 243.5,15.5C 238.821,15.3342 234.155,15.5008 229.5,16C 229.043,16.414 228.709,16.914 228.5,17.5C 230.177,20.8534 232.343,23.8534 235,26.5C 235.192,28.5767 235.692,30.5767 236.5,32.5C 238.664,32.9976 240.331,34.1642 241.5,36C 244.146,36.4974 246.813,36.6641 249.5,36.5C 249.5,36.8333 249.5,37.1667 249.5,37.5C 247.302,37.8751 245.302,38.5418 243.5,39.5C 241.5,39.1667 239.5,38.8333 237.5,38.5C 233.465,35.5973 228.465,33.0973 222.5,31C 218.791,25.3593 214.458,20.3593 209.5,16C 210.416,15.7216 211.082,15.2216 211.5,14.5 Z"/></g>
<g><path style="opacity:1" fill="#7f66f9" d="M 270.5,14.5 C 270.068,15.7095 269.401,16.7095 268.5,17.5C 265.167,18.8333 262.833,21.1667 261.5,24.5C 258.757,26.2393 256.757,28.5726 255.5,31.5C 254.833,31.5 254.167,31.5 253.5,31.5C 251.539,29.881 250.206,27.7143 249.5,25C 245.068,24.4022 242.402,21.9022 241.5,17.5C 242.243,16.8182 242.909,16.1515 243.5,15.5C 250.354,15.824 257.021,15.4907 263.5,14.5C 265.91,13.5615 268.244,13.5615 270.5,14.5 Z"/></g>
<g><path style="opacity:1" fill="#c26e8d" d="M 268.5,17.5 C 266.5,20.1667 264.167,22.5 261.5,24.5C 262.833,21.1667 265.167,18.8333 268.5,17.5 Z"/></g>
<g><path style="opacity:1" fill="#6770fd" d="M 243.5,15.5 C 242.909,16.1515 242.243,16.8182 241.5,17.5C 242.402,21.9022 245.068,24.4022 249.5,25C 250.206,27.7143 251.539,29.881 253.5,31.5C 252.167,33.1667 250.833,34.8333 249.5,36.5C 246.813,36.6641 244.146,36.4974 241.5,36C 240.331,34.1642 238.664,32.9976 236.5,32.5C 235.692,30.5767 235.192,28.5767 235,26.5C 232.343,23.8534 230.177,20.8534 228.5,17.5C 228.709,16.914 229.043,16.414 229.5,16C 234.155,15.5008 238.821,15.3342 243.5,15.5 Z"/></g>
<g><path style="opacity:1" fill="#0e8dfd" d="M 180.5,14.5 C 185.833,14.5 191.167,14.5 196.5,14.5C 196.915,18.3607 197.915,22.0274 199.5,25.5C 203.068,25.7593 204.401,27.7593 203.5,31.5C 206.118,33.2737 209.118,34.2737 212.5,34.5C 212.527,36.1993 213.194,37.5326 214.5,38.5C 206.833,38.5 199.167,38.5 191.5,38.5C 190.282,37.8386 188.949,37.1719 187.5,36.5C 188.376,35.7492 189.376,35.2492 190.5,35C 186.552,33.8624 183.552,31.529 181.5,28C 182.167,27.6667 182.833,27.3333 183.5,27C 179.046,24.0477 175.046,20.5477 171.5,16.5C 174.642,15.8326 177.642,15.166 180.5,14.5 Z"/></g>
<g><path style="opacity:1" fill="#d67466" d="M 261.5,24.5 C 260.243,27.4274 258.243,29.7607 255.5,31.5C 256.757,28.5726 258.757,26.2393 261.5,24.5 Z"/></g>
<g><path style="opacity:1" fill="#06adfc" d="M 151.5,14.5 C 150.342,15.5726 150.342,16.7393 151.5,18C 154.759,23.0374 158.592,27.5374 163,31.5C 163.333,32.5 163.667,33.5 164,34.5C 164.725,33.9415 165.558,33.6082 166.5,33.5C 168.569,33.8242 168.902,34.6575 167.5,36C 169.744,36.0496 171.411,36.8829 172.5,38.5C 169.223,38.2161 166.057,38.5495 163,39.5C 162.345,68.2627 162.512,96.9293 163.5,125.5C 161.23,129.769 158.563,133.769 155.5,137.5C 149.499,142.501 143.833,147.835 138.5,153.5C 137.957,153.44 137.624,153.107 137.5,152.5C 138.328,108.875 138.828,65.2079 139,21.5C 141.487,16.1733 145.653,13.8399 151.5,14.5 Z"/></g>
<g><path style="opacity:1" fill="#c5747b" d="M 253.5,31.5 C 254.167,31.5 254.833,31.5 255.5,31.5C 253.833,33.8333 251.833,35.8333 249.5,37.5C 249.5,37.1667 249.5,36.8333 249.5,36.5C 250.833,34.8333 252.167,33.1667 253.5,31.5 Z"/></g>
<g><path style="opacity:1" fill="#fb7124" d="M 244.5,43.5 C 243.323,45.1026 243.489,46.436 245,47.5C 246.049,46.4829 247.216,46.3162 248.5,47C 246.18,48.4876 246.013,50.3209 248,52.5C 251.518,56.3612 255.685,58.0279 260.5,57.5C 262.087,54.7759 264.42,53.1092 267.5,52.5C 267.167,50.5 266.833,48.5 266.5,46.5C 268.685,46.7036 270.685,47.3702 272.5,48.5C 267.167,54.5 261.5,60.1667 255.5,65.5C 251.5,64.8333 249.833,66.5 250.5,70.5C 249.448,70.6495 248.448,70.4828 247.5,70C 244.833,67.3333 242.167,64.6667 239.5,62C 236.755,61.9468 234.755,60.7802 233.5,58.5C 235.559,57.0488 236.559,55.0488 236.5,52.5C 239.195,49.4744 241.862,46.4744 244.5,43.5 Z"/></g>
<g><path style="opacity:0.953" fill="#d06b45" d="M 249.5,37.5 C 247.833,39.5 246.167,41.5 244.5,43.5C 241.862,46.4744 239.195,49.4744 236.5,52.5C 231.869,56.6299 227.369,60.9633 223,65.5C 222.601,65.2716 222.435,64.9382 222.5,64.5C 230.328,56.5045 237.995,48.3379 245.5,40C 244.906,39.5357 244.239,39.369 243.5,39.5C 245.302,38.5418 247.302,37.8751 249.5,37.5 Z"/></g>
<g><path style="opacity:1" fill="#f76e38" d="M 236.5,52.5 C 236.559,55.0488 235.559,57.0488 233.5,58.5C 234.755,60.7802 236.755,61.9468 239.5,62C 242.167,64.6667 244.833,67.3333 247.5,70C 248.448,70.4828 249.448,70.6495 250.5,70.5C 249.833,66.5 251.5,64.8333 255.5,65.5C 251.873,70.7944 247.54,75.461 242.5,79.5C 240.857,79.4802 239.524,80.1468 238.5,81.5C 236.878,79.5614 235.044,79.228 233,80.5C 231.318,74.6426 227.485,71.6426 221.5,71.5C 221.5,70.5 221.5,69.5 221.5,68.5C 222.506,67.6043 222.506,66.9377 221.5,66.5C 221.328,65.5084 221.662,64.8417 222.5,64.5C 222.435,64.9382 222.601,65.2716 223,65.5C 227.369,60.9633 231.869,56.6299 236.5,52.5 Z"/></g>
<g><path style="opacity:1" fill="#f56b44" d="M 221.5,68.5 C 221.5,69.5 221.5,70.5 221.5,71.5C 227.485,71.6426 231.318,74.6426 233,80.5C 235.044,79.228 236.878,79.5614 238.5,81.5C 239.524,80.1468 240.857,79.4802 242.5,79.5C 239.471,82.859 236.471,86.1924 233.5,89.5C 231.167,90.8333 228.833,90.8333 226.5,89.5C 225.91,88.234 225.41,86.9007 225,85.5C 222.805,83.3122 220.305,81.4789 217.5,80C 217.085,77.9737 216.085,76.4737 214.5,75.5C 216.5,72.8333 218.833,70.5 221.5,68.5 Z"/></g>
<g><path style="opacity:1" fill="#fc7805" d="M 335.5,74.5 C 338.201,75.2294 340.867,75.5627 343.5,75.5C 345.578,77.3904 346.911,79.7238 347.5,82.5C 349.138,83.9584 350.805,84.2917 352.5,83.5C 353.281,84.7287 353.781,86.062 354,87.5C 355.087,85.0684 355.587,85.4017 355.5,88.5C 346.5,98.1667 337.167,107.5 327.5,116.5C 325.227,117.735 323.394,117.402 322,115.5C 322.409,117.225 322.242,118.892 321.5,120.5C 320.914,120.291 320.414,119.957 320,119.5C 318.867,121.211 317.367,121.711 315.5,121C 317.155,118.753 317.488,116.42 316.5,114C 313.808,113.57 311.141,113.737 308.5,114.5C 308.669,112.088 308.003,109.921 306.5,108C 307.232,106.235 308.565,105.068 310.5,104.5C 309.833,103.833 309.167,103.167 308.5,102.5C 309.127,101.583 309.461,100.583 309.5,99.5C 318.14,91.1943 326.807,82.8609 335.5,74.5 Z"/></g>
<g><path style="opacity:0.784" fill="#c76454" d="M 221.5,66.5 C 222.506,66.9377 222.506,67.6043 221.5,68.5C 218.833,70.5 216.5,72.8333 214.5,75.5C 211.167,78.1667 208.167,81.1667 205.5,84.5C 204.5,85.1667 203.5,85.8333 202.5,86.5C 208.109,79.2224 214.442,72.5557 221.5,66.5 Z"/></g>
<g><path style="opacity:1" fill="#f46854" d="M 214.5,75.5 C 216.085,76.4737 217.085,77.9737 217.5,80C 220.305,81.4789 222.805,83.3122 225,85.5C 225.41,86.9007 225.91,88.234 226.5,89.5C 226.755,90.9361 227.088,92.4361 227.5,94C 226.551,94.6172 225.718,94.4506 225,93.5C 224.727,95.1012 224.227,96.6012 223.5,98C 219.102,101.174 214.768,103.674 210.5,105.5C 209.334,103.635 209.667,101.968 211.5,100.5C 208.5,99.1667 205.5,97.8333 202.5,96.5C 204.887,93.9057 204.887,91.4057 202.5,89C 204.1,87.8767 205.1,86.3767 205.5,84.5C 208.167,81.1667 211.167,78.1667 214.5,75.5 Z"/></g>
<g><path style="opacity:1" fill="#ee6466" d="M 205.5,84.5 C 205.1,86.3767 204.1,87.8767 202.5,89C 204.887,91.4057 204.887,93.9057 202.5,96.5C 205.5,97.8333 208.5,99.1667 211.5,100.5C 209.667,101.968 209.334,103.635 210.5,105.5C 214.768,103.674 219.102,101.174 223.5,98C 224.227,96.6012 224.727,95.1012 225,93.5C 225.718,94.4506 226.551,94.6172 227.5,94C 227.088,92.4361 226.755,90.9361 226.5,89.5C 228.833,90.8333 231.167,90.8333 233.5,89.5C 227.5,96.1667 221.167,102.5 214.5,108.5C 213.167,108.5 211.833,108.5 210.5,108.5C 210.919,111.325 209.919,113.491 207.5,115C 204.153,116.009 201.319,117.843 199,120.5C 198.51,119.207 198.343,117.873 198.5,116.5C 197.5,116.5 196.5,116.5 195.5,116.5C 195.5,115.167 195.5,113.833 195.5,112.5C 192.708,112.548 190.875,111.215 190,108.5C 188.175,109.571 187.008,108.904 186.5,106.5C 187.806,105.088 188.64,103.421 189,101.5C 193.768,97.2401 197.934,92.5734 201.5,87.5C 201.5,86.8333 201.833,86.5 202.5,86.5C 203.5,85.8333 204.5,85.1667 205.5,84.5 Z"/></g>
<g><path style="opacity:1" fill="#fc7223" d="M 309.5,99.5 C 309.461,100.583 309.127,101.583 308.5,102.5C 309.167,103.167 309.833,103.833 310.5,104.5C 308.565,105.068 307.232,106.235 306.5,108C 308.003,109.921 308.669,112.088 308.5,114.5C 311.141,113.737 313.808,113.57 316.5,114C 317.488,116.42 317.155,118.753 315.5,121C 317.367,121.711 318.867,121.211 320,119.5C 320.414,119.957 320.914,120.291 321.5,120.5C 322.242,118.892 322.409,117.225 322,115.5C 323.394,117.402 325.227,117.735 327.5,116.5C 325.5,119.167 323.167,121.5 320.5,123.5C 317.518,124.392 314.684,125.725 312,127.5C 311.667,127.167 311.333,126.833 311,126.5C 310.316,127.784 310.483,128.951 311.5,130C 310.027,130.71 309.36,131.876 309.5,133.5C 306.639,133.487 305.639,132.321 306.5,130C 303.06,129.121 302.06,127.121 303.5,124C 302.705,122.205 301.538,120.705 300,119.5C 298.037,120.625 296.204,121.959 294.5,123.5C 295.006,120.395 296.84,117.729 300,115.5C 300.311,114.258 299.811,113.258 298.5,112.5C 300.278,110.736 301.611,108.736 302.5,106.5C 304.5,103.833 306.833,101.5 309.5,99.5 Z"/></g>
<g><path style="opacity:0.965" fill="#bd647b" d="M 182.5,107.5 C 179.566,111.773 176.233,115.773 172.5,119.5C 169.833,121.833 167.167,124.167 164.5,126.5C 164.5,126.167 164.5,125.833 164.5,125.5C 170.167,119.167 176.167,113.167 182.5,107.5 Z"/></g>
<g><path style="opacity:1" fill="#e56077" d="M 201.5,87.5 C 197.934,92.5734 193.768,97.2401 189,101.5C 188.64,103.421 187.806,105.088 186.5,106.5C 187.008,108.904 188.175,109.571 190,108.5C 190.875,111.215 192.708,112.548 195.5,112.5C 195.5,113.833 195.5,115.167 195.5,116.5C 196.5,116.5 197.5,116.5 198.5,116.5C 198.343,117.873 198.51,119.207 199,120.5C 201.319,117.843 204.153,116.009 207.5,115C 209.919,113.491 210.919,111.325 210.5,108.5C 211.833,108.5 213.167,108.5 214.5,108.5C 205.527,118.807 196.194,128.807 186.5,138.5C 186.808,136.076 186.474,133.743 185.5,131.5C 183.898,132.55 183.065,131.883 183,129.5C 181.488,130.257 180.154,131.257 179,132.5C 176.977,130.987 177.144,129.654 179.5,128.5C 177.604,127.534 175.604,127.201 173.5,127.5C 173.806,124.615 173.473,121.948 172.5,119.5C 176.233,115.773 179.566,111.773 182.5,107.5C 188.109,100.222 194.442,93.5557 201.5,87.5 Z"/></g>
<g><path style="opacity:1" fill="#b06bab" d="M 163.5,125.5 C 163.833,125.5 164.167,125.5 164.5,125.5C 164.5,125.833 164.5,126.167 164.5,126.5C 163.766,127.708 163.433,129.041 163.5,130.5C 160.833,132.833 158.167,135.167 155.5,137.5C 158.563,133.769 161.23,129.769 163.5,125.5 Z"/></g>
<g><path style="opacity:1" fill="#f76f3c" d="M 302.5,106.5 C 301.611,108.736 300.278,110.736 298.5,112.5C 299.811,113.258 300.311,114.258 300,115.5C 296.84,117.729 295.006,120.395 294.5,123.5C 296.204,121.959 298.037,120.625 300,119.5C 301.538,120.705 302.705,122.205 303.5,124C 302.06,127.121 303.06,129.121 306.5,130C 305.639,132.321 306.639,133.487 309.5,133.5C 309.36,131.876 310.027,130.71 311.5,130C 310.483,128.951 310.316,127.784 311,126.5C 311.333,126.833 311.667,127.167 312,127.5C 314.684,125.725 317.518,124.392 320.5,123.5C 313.5,131.167 306.167,138.5 298.5,145.5C 296.473,145.662 294.473,145.495 292.5,145C 293.089,143.127 292.422,141.46 290.5,140C 287.408,138.879 284.408,137.713 281.5,136.5C 281.104,133.956 281.771,131.789 283.5,130C 283.043,129.586 282.709,129.086 282.5,128.5C 284.605,126.408 286.272,124.075 287.5,121.5C 292.167,116.167 297.167,111.167 302.5,106.5 Z"/></g>
<g><path style="opacity:1" fill="#e45b86" d="M 172.5,119.5 C 173.473,121.948 173.806,124.615 173.5,127.5C 175.604,127.201 177.604,127.534 179.5,128.5C 177.144,129.654 176.977,130.987 179,132.5C 180.154,131.257 181.488,130.257 183,129.5C 183.065,131.883 183.898,132.55 185.5,131.5C 186.474,133.743 186.808,136.076 186.5,138.5C 182.472,142.859 178.472,147.193 174.5,151.5C 175.363,147.838 174.03,145.672 170.5,145C 176.564,138.588 175.564,136.755 167.5,139.5C 166.833,139.167 166.167,138.833 165.5,138.5C 166.742,136.267 168.076,134.101 169.5,132C 167.521,131.316 165.854,131.816 164.5,133.5C 163.614,132.675 163.281,131.675 163.5,130.5C 163.433,129.041 163.766,127.708 164.5,126.5C 167.167,124.167 169.833,121.833 172.5,119.5 Z"/></g>
<g><path style="opacity:1" fill="#f56b4c" d="M 287.5,121.5 C 286.272,124.075 284.605,126.408 282.5,128.5C 282.709,129.086 283.043,129.586 283.5,130C 281.771,131.789 281.104,133.956 281.5,136.5C 284.408,137.713 287.408,138.879 290.5,140C 292.422,141.46 293.089,143.127 292.5,145C 294.473,145.495 296.473,145.662 298.5,145.5C 297.167,147.167 295.833,148.833 294.5,150.5C 293.29,150.932 292.29,151.599 291.5,152.5C 290.833,152.5 290.167,152.5 289.5,152.5C 287.952,152.179 287.285,151.179 287.5,149.5C 285.142,150.178 282.975,150.512 281,150.5C 279.667,145.336 277.833,140.502 275.5,136C 277.73,133.28 279.73,130.446 281.5,127.5C 283.167,125.167 285.167,123.167 287.5,121.5 Z"/></g>
<g><path style="opacity:1" fill="#e15892" d="M 163.5,130.5 C 163.281,131.675 163.614,132.675 164.5,133.5C 165.854,131.816 167.521,131.316 169.5,132C 168.076,134.101 166.742,136.267 165.5,138.5C 166.167,138.833 166.833,139.167 167.5,139.5C 175.564,136.755 176.564,138.588 170.5,145C 174.03,145.672 175.363,147.838 174.5,151.5C 171.167,155.5 167.5,159.167 163.5,162.5C 163.48,160.857 164.147,159.524 165.5,158.5C 164.833,157.833 164.167,157.167 163.5,156.5C 165.117,156.331 166.784,155.997 168.5,155.5C 166.639,154.472 165.305,152.972 164.5,151C 162.48,149.783 160.48,149.617 158.5,150.5C 157.679,147.553 157.179,144.553 157,141.5C 155.89,143.037 154.39,143.703 152.5,143.5C 153.706,142.264 154.706,140.264 155.5,137.5C 158.167,135.167 160.833,132.833 163.5,130.5 Z"/></g>
<g><path style="opacity:1" fill="#f36856" d="M 281.5,127.5 C 279.73,130.446 277.73,133.28 275.5,136C 277.833,140.502 279.667,145.336 281,150.5C 282.975,150.512 285.142,150.178 287.5,149.5C 287.285,151.179 287.952,152.179 289.5,152.5C 285.14,157.527 280.473,162.194 275.5,166.5C 274.5,166.5 273.5,166.5 272.5,166.5C 271.699,164.958 271.366,163.292 271.5,161.5C 272.978,161.762 274.311,161.429 275.5,160.5C 274.349,159.269 273.183,159.269 272,160.5C 271.316,159.216 271.483,158.049 272.5,157C 271.167,157 269.833,157 268.5,157C 268.469,155.279 267.802,153.446 266.5,151.5C 265.378,152.63 264.044,153.297 262.5,153.5C 260.972,153.483 260.472,152.816 261,151.5C 263.472,149.702 265.139,147.368 266,144.5C 267.378,142.787 269.045,141.453 271,140.5C 271.483,139.552 271.649,138.552 271.5,137.5C 274.5,133.833 277.833,130.5 281.5,127.5 Z"/></g>
<g><path style="opacity:1" fill="#f06463" d="M 262.5,153.5 C 264.044,153.297 265.378,152.63 266.5,151.5C 267.802,153.446 268.469,155.279 268.5,157C 269.833,157 271.167,157 272.5,157C 271.483,158.049 271.316,159.216 272,160.5C 273.183,159.269 274.349,159.269 275.5,160.5C 274.311,161.429 272.978,161.762 271.5,161.5C 271.366,163.292 271.699,164.958 272.5,166.5C 272.298,167.364 271.964,168.364 271.5,169.5C 268.26,171.515 264.76,172.848 261,173.5C 258.697,171.472 257.863,169.139 258.5,166.5C 257.05,165.15 256.383,163.484 256.5,161.5C 255.5,161.5 254.5,161.5 253.5,161.5C 254.301,157.592 256.135,154.259 259,151.5C 259.483,152.448 259.649,153.448 259.5,154.5C 260.791,154.737 261.791,154.404 262.5,153.5 Z"/></g>
<g><path style="opacity:1" fill="#da54a2" d="M 155.5,137.5 C 154.706,140.264 153.706,142.264 152.5,143.5C 154.39,143.703 155.89,143.037 157,141.5C 157.179,144.553 157.679,147.553 158.5,150.5C 160.48,149.617 162.48,149.783 164.5,151C 165.305,152.972 166.639,154.472 168.5,155.5C 166.784,155.997 165.117,156.331 163.5,156.5C 164.167,157.167 164.833,157.833 165.5,158.5C 164.147,159.524 163.48,160.857 163.5,162.5C 162.538,169.412 162.205,176.412 162.5,183.5C 159.998,179.622 157.498,175.622 155,171.5C 151.833,169 149,166.167 146.5,163C 144.099,162.205 141.932,161.038 140,159.5C 139.827,165.016 139.327,170.349 138.5,175.5C 138.5,168.167 138.5,160.833 138.5,153.5C 143.833,147.835 149.499,142.501 155.5,137.5 Z"/></g>
<g><path style="opacity:1" fill="#cc5fa7" d="M 289.5,152.5 C 290.167,152.5 290.833,152.5 291.5,152.5C 287.203,157.298 282.703,161.965 278,166.5C 277.51,167.793 277.343,169.127 277.5,170.5C 276.833,170.167 276.167,169.833 275.5,169.5C 275.5,168.5 275.5,167.5 275.5,166.5C 280.473,162.194 285.14,157.527 289.5,152.5 Z"/></g>
<g><path style="opacity:1" fill="#da4eb1" d="M 162.5,183.5 C 162.5,193.5 162.5,203.5 162.5,213.5C 161.849,214.091 161.182,214.757 160.5,215.5C 158.914,213.827 158.247,211.827 158.5,209.5C 156.217,209.392 154.217,208.559 152.5,207C 150.654,203.821 148.154,201.321 145,199.5C 144.055,199.905 143.388,200.572 143,201.5C 141.684,198.312 141.184,194.978 141.5,191.5C 140.5,191.5 139.5,191.5 138.5,191.5C 138.5,186.167 138.5,180.833 138.5,175.5C 139.327,170.349 139.827,165.016 140,159.5C 141.932,161.038 144.099,162.205 146.5,163C 149,166.167 151.833,169 155,171.5C 157.498,175.622 159.998,179.622 162.5,183.5 Z"/></g>
<g><path style="opacity:1" fill="#ea6173" d="M 271.5,137.5 C 271.649,138.552 271.483,139.552 271,140.5C 269.045,141.453 267.378,142.787 266,144.5C 265.139,147.368 263.472,149.702 261,151.5C 260.472,152.816 260.972,153.483 262.5,153.5C 261.791,154.404 260.791,154.737 259.5,154.5C 259.649,153.448 259.483,152.448 259,151.5C 256.135,154.259 254.301,157.592 253.5,161.5C 254.5,161.5 255.5,161.5 256.5,161.5C 256.383,163.484 257.05,165.15 258.5,166.5C 257.863,169.139 258.697,171.472 261,173.5C 264.76,172.848 268.26,171.515 271.5,169.5C 271.964,168.364 272.298,167.364 272.5,166.5C 273.5,166.5 274.5,166.5 275.5,166.5C 275.5,167.5 275.5,168.5 275.5,169.5C 271.167,173.5 266.833,177.5 262.5,181.5C 260.801,181.34 259.134,181.506 257.5,182C 257.957,182.414 258.291,182.914 258.5,183.5C 256.922,184.298 255.256,184.798 253.5,185C 253.833,185.333 254.167,185.667 254.5,186C 252.151,188.37 249.485,188.87 246.5,187.5C 244.526,183.692 241.692,180.692 238,178.5C 237.542,175.904 238.375,173.737 240.5,172C 239.748,171.329 239.414,170.496 239.5,169.5C 249.833,158.5 260.5,147.833 271.5,137.5 Z"/></g>
<g><path style="opacity:0.8" fill="#9c66db" d="M 277.5,170.5 C 282.833,173.167 286.833,177.167 289.5,182.5C 285.167,178.833 281.167,174.833 277.5,170.5 Z"/></g>
<g><path style="opacity:1" fill="#9d53fc" d="M 294.5,150.5 C 294.369,151.239 294.536,151.906 295,152.5C 316.702,174.035 338.202,195.701 359.5,217.5C 359.837,219.672 360.837,221.505 362.5,223C 362,224.833 360.833,226 359,226.5C 351.367,223.51 343.534,221.343 335.5,220C 334.789,218.745 333.956,217.579 333,216.5C 331.612,217.554 330.112,217.72 328.5,217C 326.333,215.5 324.5,213.667 323,211.5C 321.989,212.337 320.822,212.67 319.5,212.5C 317.833,208.833 315.167,206.167 311.5,204.5C 303.833,197.5 296.5,190.167 289.5,182.5C 286.833,177.167 282.833,173.167 277.5,170.5C 277.343,169.127 277.51,167.793 278,166.5C 282.703,161.965 287.203,157.298 291.5,152.5C 292.29,151.599 293.29,150.932 294.5,150.5 Z"/></g>
<g><path style="opacity:1" fill="#e55c84" d="M 239.5,169.5 C 239.414,170.496 239.748,171.329 240.5,172C 238.375,173.737 237.542,175.904 238,178.5C 241.692,180.692 244.526,183.692 246.5,187.5C 249.485,188.87 252.151,188.37 254.5,186C 254.167,185.667 253.833,185.333 253.5,185C 255.256,184.798 256.922,184.298 258.5,183.5C 258.291,182.914 257.957,182.414 257.5,182C 259.134,181.506 260.801,181.34 262.5,181.5C 255.833,188.833 248.833,195.833 241.5,202.5C 239.419,201.28 237.419,200.614 235.5,200.5C 232.866,198.876 231.533,196.543 231.5,193.5C 229.092,192.799 226.758,191.799 224.5,190.5C 226.573,187.881 227.573,184.881 227.5,181.5C 231.167,177.167 235.167,173.167 239.5,169.5 Z"/></g>
<g><path style="opacity:1" fill="#df5a91" d="M 227.5,181.5 C 227.573,184.881 226.573,187.881 224.5,190.5C 226.758,191.799 229.092,192.799 231.5,193.5C 231.533,196.543 232.866,198.876 235.5,200.5C 237.419,200.614 239.419,201.28 241.5,202.5C 234.5,210.167 227.167,217.5 219.5,224.5C 219.5,223.167 219.5,221.833 219.5,220.5C 220.183,218.824 221.517,218.157 223.5,218.5C 223.5,217.5 223.5,216.5 223.5,215.5C 224.978,215.762 226.311,215.429 227.5,214.5C 226.754,213.264 226.421,211.93 226.5,210.5C 225.167,210.5 223.833,210.5 222.5,210.5C 219.998,203.968 217.664,198.301 215.5,193.5C 219.14,189.194 223.14,185.194 227.5,181.5 Z"/></g>
<g><path style="opacity:0.878" fill="#9362db" d="M 311.5,204.5 C 315.167,206.167 317.833,208.833 319.5,212.5C 316.5,210.167 313.833,207.5 311.5,204.5 Z"/></g>
<g><path style="opacity:1" fill="#d64ac1" d="M 138.5,191.5 C 139.5,191.5 140.5,191.5 141.5,191.5C 141.184,194.978 141.684,198.312 143,201.5C 143.388,200.572 144.055,199.905 145,199.5C 148.154,201.321 150.654,203.821 152.5,207C 154.217,208.559 156.217,209.392 158.5,209.5C 158.247,211.827 158.914,213.827 160.5,215.5C 161.182,214.757 161.849,214.091 162.5,213.5C 162.168,224.187 162.501,234.854 163.5,245.5C 167.854,241.478 172.187,237.478 176.5,233.5C 179.056,232.457 181.223,230.79 183,228.5C 182.981,230.107 182.815,231.774 182.5,233.5C 186.121,235.984 189.788,238.484 193.5,241C 190.983,243.09 190.983,244.923 193.5,246.5C 193.5,247.833 193.5,249.167 193.5,250.5C 189.805,254.526 186.138,258.526 182.5,262.5C 179.891,263.443 177.891,265.11 176.5,267.5C 173.167,268.833 170.833,271.167 169.5,274.5C 168.761,274.369 168.094,274.536 167.5,275C 165.946,277.287 164.279,279.454 162.5,281.5C 159.681,284.008 156.681,286.341 153.5,288.5C 146.872,289.769 142.039,287.436 139,281.5C 138.5,251.502 138.333,221.502 138.5,191.5 Z"/></g>
<g><path style="opacity:1" fill="#e0559c" d="M 215.5,193.5 C 217.664,198.301 219.998,203.968 222.5,210.5C 223.833,210.5 225.167,210.5 226.5,210.5C 226.421,211.93 226.754,213.264 227.5,214.5C 226.311,215.429 224.978,215.762 223.5,215.5C 223.5,216.5 223.5,217.5 223.5,218.5C 221.517,218.157 220.183,218.824 219.5,220.5C 218.596,221.209 218.263,222.209 218.5,223.5C 217.5,223.5 216.5,223.5 215.5,223.5C 213.862,218.032 210.196,214.865 204.5,214C 205.206,211.417 206.539,209.25 208.5,207.5C 207.691,205.929 207.357,204.262 207.5,202.5C 209.824,199.177 212.491,196.177 215.5,193.5 Z"/></g>
<g><path style="opacity:1" fill="#d952a8" d="M 207.5,202.5 C 207.357,204.262 207.691,205.929 208.5,207.5C 206.539,209.25 205.206,211.417 204.5,214C 210.196,214.865 213.862,218.032 215.5,223.5C 216.5,223.5 217.5,223.5 218.5,223.5C 218.263,222.209 218.596,221.209 219.5,220.5C 219.5,221.833 219.5,223.167 219.5,224.5C 211.167,233.5 202.5,242.167 193.5,250.5C 193.5,249.167 193.5,247.833 193.5,246.5C 194.687,244.025 196.687,243.025 199.5,243.5C 198.612,240.16 198.945,236.827 200.5,233.5C 198.971,231.812 197.137,230.479 195,229.5C 194.517,228.552 194.351,227.552 194.5,226.5C 192.516,226.617 190.85,225.95 189.5,224.5C 190.325,223.614 191.325,223.281 192.5,223.5C 192.719,222.325 192.386,221.325 191.5,220.5C 190.06,221.952 188.394,222.952 186.5,223.5C 193.167,216.167 200.167,209.167 207.5,202.5 Z"/></g>
<g><path style="opacity:1" fill="#8760fc" d="M 359.5,217.5 C 363.833,221.167 367.833,225.167 371.5,229.5C 371.557,230.609 371.89,231.609 372.5,232.5C 371.828,234.668 370.328,236.001 368,236.5C 364.109,235.536 360.275,234.37 356.5,233C 354.288,232.211 352.288,232.378 350.5,233.5C 348.699,231.862 347.033,230.029 345.5,228C 344.668,227.312 344.002,227.479 343.5,228.5C 344.811,229.258 345.311,230.258 345,231.5C 344.259,230.359 343.425,230.359 342.5,231.5C 341.808,230.975 341.308,230.308 341,229.5C 340.107,230.711 339.274,230.711 338.5,229.5C 338.709,228.914 339.043,228.414 339.5,228C 336.144,227.128 333.144,225.628 330.5,223.5C 326.5,220.167 322.833,216.5 319.5,212.5C 320.822,212.67 321.989,212.337 323,211.5C 324.5,213.667 326.333,215.5 328.5,217C 330.112,217.72 331.612,217.554 333,216.5C 333.956,217.579 334.789,218.745 335.5,220C 343.534,221.343 351.367,223.51 359,226.5C 360.833,226 362,224.833 362.5,223C 360.837,221.505 359.837,219.672 359.5,217.5 Z"/></g>
<g><path style="opacity:1" fill="#d84db6" d="M 193.5,246.5 C 190.983,244.923 190.983,243.09 193.5,241C 189.788,238.484 186.121,235.984 182.5,233.5C 182.815,231.774 182.981,230.107 183,228.5C 181.223,230.79 179.056,232.457 176.5,233.5C 179.5,229.833 182.833,226.5 186.5,223.5C 188.394,222.952 190.06,221.952 191.5,220.5C 192.386,221.325 192.719,222.325 192.5,223.5C 191.325,223.281 190.325,223.614 189.5,224.5C 190.85,225.95 192.516,226.617 194.5,226.5C 194.351,227.552 194.517,228.552 195,229.5C 197.137,230.479 198.971,231.812 200.5,233.5C 198.945,236.827 198.612,240.16 199.5,243.5C 196.687,243.025 194.687,244.025 193.5,246.5 Z"/></g>
<g><path style="opacity:1" fill="#6671fa" d="M 330.5,223.5 C 333.144,225.628 336.144,227.128 339.5,228C 339.043,228.414 338.709,228.914 338.5,229.5C 339.274,230.711 340.107,230.711 341,229.5C 341.308,230.308 341.808,230.975 342.5,231.5C 343.425,230.359 344.259,230.359 345,231.5C 345.311,230.258 344.811,229.258 343.5,228.5C 344.002,227.479 344.668,227.312 345.5,228C 347.033,230.029 348.699,231.862 350.5,233.5C 351.341,235.379 351.675,237.379 351.5,239.5C 355.774,239.803 359.441,241.47 362.5,244.5C 363.548,243.617 364.715,242.95 366,242.5C 370.677,243.316 375.01,244.316 379,245.5C 378.333,243.167 378.333,240.833 379,238.5C 376.963,236.294 374.797,234.294 372.5,232.5C 371.89,231.609 371.557,230.609 371.5,229.5C 380.167,237.5 388.5,245.833 396.5,254.5C 395.768,255.808 394.934,257.142 394,258.5C 392.647,257.315 391.48,255.981 390.5,254.5C 389.707,254.931 388.873,255.265 388,255.5C 380.417,254.253 373.084,252.253 366,249.5C 363.771,252.156 361.938,251.823 360.5,248.5C 359.227,248.746 358.06,248.746 357,248.5C 354.787,246.751 353.787,244.751 354,242.5C 353.583,243.756 352.75,244.423 351.5,244.5C 344.167,237.833 337.167,230.833 330.5,223.5 Z"/></g>
<g><path style="opacity:1" fill="#726bfd" d="M 372.5,232.5 C 374.797,234.294 376.963,236.294 379,238.5C 378.333,240.833 378.333,243.167 379,245.5C 375.01,244.316 370.677,243.316 366,242.5C 364.715,242.95 363.548,243.617 362.5,244.5C 359.441,241.47 355.774,239.803 351.5,239.5C 351.675,237.379 351.341,235.379 350.5,233.5C 352.288,232.378 354.288,232.211 356.5,233C 360.275,234.37 364.109,235.536 368,236.5C 370.328,236.001 371.828,234.668 372.5,232.5 Z"/></g>
<g><path style="opacity:1" fill="#03aefd" d="M 182.5,262.5 C 182.611,263.117 182.944,263.617 183.5,264C 208.164,264.5 232.831,264.667 257.5,264.5C 257.351,265.552 257.517,266.552 258,267.5C 260.234,267.626 262.568,267.293 265,266.5C 268.139,267.079 271.139,268.079 274,269.5C 275,269.167 276,268.833 277,268.5C 282.988,270.468 288.821,272.802 294.5,275.5C 295.167,275.167 295.833,274.833 296.5,274.5C 298.901,277.219 301.734,277.885 305,276.5C 306.497,277.477 307.997,278.477 309.5,279.5C 310.442,279.392 311.275,279.059 312,278.5C 319.491,280.75 326.991,283.083 334.5,285.5C 335.675,284.145 336.675,284.312 337.5,286C 336.619,286.708 335.953,287.542 335.5,288.5C 275.762,288.171 216.095,288.504 156.5,289.5C 155.553,287.242 156.553,286.075 159.5,286C 160.386,284.385 161.386,282.885 162.5,281.5C 164.279,279.454 165.946,277.287 167.5,275C 168.094,274.536 168.761,274.369 169.5,274.5C 172.167,272.5 174.5,270.167 176.5,267.5C 177.891,265.11 179.891,263.443 182.5,262.5 Z"/></g>
<g><path style="opacity:1" fill="#01a5fe" d="M 257.5,264.5 C 273.5,264.5 289.5,264.5 305.5,264.5C 304.791,265.404 303.791,265.737 302.5,265.5C 296.158,265.334 289.825,265.5 283.5,266C 308.074,272.606 333.241,279.106 359,285.5C 360.908,285.715 362.074,286.715 362.5,288.5C 353.5,288.5 344.5,288.5 335.5,288.5C 335.953,287.542 336.619,286.708 337.5,286C 336.675,284.312 335.675,284.145 334.5,285.5C 326.991,283.083 319.491,280.75 312,278.5C 311.275,279.059 310.442,279.392 309.5,279.5C 307.997,278.477 306.497,277.477 305,276.5C 301.734,277.885 298.901,277.219 296.5,274.5C 295.833,274.833 295.167,275.167 294.5,275.5C 288.821,272.802 282.988,270.468 277,268.5C 276,268.833 275,269.167 274,269.5C 271.139,268.079 268.139,267.079 265,266.5C 262.568,267.293 260.234,267.626 258,267.5C 257.517,266.552 257.351,265.552 257.5,264.5 Z"/></g>
<g><path style="opacity:1" fill="#0299fd" d="M 305.5,264.5 C 315.5,264.5 325.5,264.5 335.5,264.5C 332.359,265.321 329.025,265.821 325.5,266C 331.142,266.722 336.642,267.889 342,269.5C 342.333,269.167 342.667,268.833 343,268.5C 344.94,271.608 347.606,272.275 351,270.5C 353.718,271.991 356.551,273.324 359.5,274.5C 367.591,276.118 375.591,278.118 383.5,280.5C 387.796,281.328 392.129,281.828 396.5,282C 398.436,283.362 399.769,285.195 400.5,287.5C 401.148,285.851 402.148,284.518 403.5,283.5C 404.842,285.005 406.508,285.672 408.5,285.5C 407.942,286.79 406.942,287.623 405.5,288C 396.84,288.5 388.173,288.666 379.5,288.5C 380.808,287.768 382.142,286.934 383.5,286C 379.425,284.917 375.425,283.584 371.5,282C 367.64,282.658 363.973,281.825 360.5,279.5C 359.833,279.833 359.167,280.167 358.5,280.5C 351.41,278.439 344.41,276.106 337.5,273.5C 334.299,274.391 331.299,273.724 328.5,271.5C 327.833,271.833 327.167,272.167 326.5,272.5C 324.833,271.5 323.167,270.5 321.5,269.5C 314.978,268.404 308.645,267.071 302.5,265.5C 303.791,265.737 304.791,265.404 305.5,264.5 Z"/></g>
<g><path style="opacity:1" fill="#0391fc" d="M 335.5,264.5 C 343.167,264.5 350.833,264.5 358.5,264.5C 359.067,266.03 359.733,267.53 360.5,269C 363.596,269.693 366.429,270.193 369,270.5C 370.582,268.971 372.415,268.471 374.5,269C 373.672,269.915 372.672,270.581 371.5,271C 371.833,271.333 372.167,271.667 372.5,272C 379.101,272.935 385.434,274.601 391.5,277C 396.691,278.315 401.857,278.815 407,278.5C 408.9,277.923 410.733,277.256 412.5,276.5C 413.039,280.416 411.706,283.416 408.5,285.5C 406.508,285.672 404.842,285.005 403.5,283.5C 402.148,284.518 401.148,285.851 400.5,287.5C 399.769,285.195 398.436,283.362 396.5,282C 392.129,281.828 387.796,281.328 383.5,280.5C 375.591,278.118 367.591,276.118 359.5,274.5C 356.551,273.324 353.718,271.991 351,270.5C 347.606,272.275 344.94,271.608 343,268.5C 342.667,268.833 342.333,269.167 342,269.5C 336.642,267.889 331.142,266.722 325.5,266C 329.025,265.821 332.359,265.321 335.5,264.5 Z"/></g>
<g><path style="opacity:1" fill="#4b7dfa" d="M 396.5,254.5 C 399.167,257.5 401.833,260.5 404.5,263.5C 404.36,265.124 405.027,266.29 406.5,267C 404.919,267.707 403.419,268.54 402,269.5C 400.38,267.274 398.214,265.94 395.5,265.5C 391.657,268.541 388.324,268.041 385.5,264C 382.008,264.736 380.008,263.236 379.5,259.5C 376.447,258.546 373.614,258.546 371,259.5C 368,258.5 366,256.5 365,253.5C 364.667,253.833 364.333,254.167 364,254.5C 362.303,252.368 360.136,251.035 357.5,250.5C 355.167,248.833 353.167,246.833 351.5,244.5C 352.75,244.423 353.583,243.756 354,242.5C 353.787,244.751 354.787,246.751 357,248.5C 358.06,248.746 359.227,248.746 360.5,248.5C 361.938,251.823 363.771,252.156 366,249.5C 373.084,252.253 380.417,254.253 388,255.5C 388.873,255.265 389.707,254.931 390.5,254.5C 391.48,255.981 392.647,257.315 394,258.5C 394.934,257.142 395.768,255.808 396.5,254.5 Z"/></g>
<g><path style="opacity:1" fill="#009ffe" d="M 302.5,265.5 C 308.645,267.071 314.978,268.404 321.5,269.5C 323.167,270.5 324.833,271.5 326.5,272.5C 327.167,272.167 327.833,271.833 328.5,271.5C 331.299,273.724 334.299,274.391 337.5,273.5C 344.41,276.106 351.41,278.439 358.5,280.5C 359.167,280.167 359.833,279.833 360.5,279.5C 363.973,281.825 367.64,282.658 371.5,282C 375.425,283.584 379.425,284.917 383.5,286C 382.142,286.934 380.808,287.768 379.5,288.5C 373.833,288.5 368.167,288.5 362.5,288.5C 362.074,286.715 360.908,285.715 359,285.5C 333.241,279.106 308.074,272.606 283.5,266C 289.825,265.5 296.158,265.334 302.5,265.5 Z"/></g>
<g><path style="opacity:1" fill="#2289fc" d="M 357.5,250.5 C 360.136,251.035 362.303,252.368 364,254.5C 364.333,254.167 364.667,253.833 365,253.5C 366,256.5 368,258.5 371,259.5C 373.614,258.546 376.447,258.546 379.5,259.5C 380.008,263.236 382.008,264.736 385.5,264C 388.324,268.041 391.657,268.541 395.5,265.5C 398.214,265.94 400.38,267.274 402,269.5C 403.419,268.54 404.919,267.707 406.5,267C 405.027,266.29 404.36,265.124 404.5,263.5C 409.68,266.335 412.347,270.668 412.5,276.5C 410.733,277.256 408.9,277.923 407,278.5C 401.857,278.815 396.691,278.315 391.5,277C 385.434,274.601 379.101,272.935 372.5,272C 372.167,271.667 371.833,271.333 371.5,271C 372.672,270.581 373.672,269.915 374.5,269C 372.415,268.471 370.582,268.971 369,270.5C 366.429,270.193 363.596,269.693 360.5,269C 359.733,267.53 359.067,266.03 358.5,264.5C 362.514,264.666 366.514,264.499 370.5,264C 365.963,259.631 361.63,255.131 357.5,250.5 Z"/></g>
<g><path style="opacity:1" fill="#7c75df" d="M 176.5,267.5 C 174.5,270.167 172.167,272.5 169.5,274.5C 170.833,271.167 173.167,268.833 176.5,267.5 Z"/></g>
<g><path style="opacity:0.937" fill="#7577df" d="M 162.5,281.5 C 161.386,282.885 160.386,284.385 159.5,286C 156.553,286.075 155.553,287.242 156.5,289.5C 155.391,289.443 154.391,289.11 153.5,288.5C 156.681,286.341 159.681,284.008 162.5,281.5 Z"/></g>
<g><path style="opacity:0.99" fill="#030303" d="M 106.5,375.5 C 107.5,375.5 108.5,375.5 109.5,375.5C 109.5,389.833 109.5,404.167 109.5,418.5C 107.5,418.5 105.5,418.5 103.5,418.5C 103.5,404.5 103.5,390.5 103.5,376.5C 104.791,376.737 105.791,376.404 106.5,375.5 Z"/></g>
<g><path style="opacity:0.989" fill="#030303" d="M 257.5,375.5 C 258.5,375.5 259.5,375.5 260.5,375.5C 260.5,389.833 260.5,404.167 260.5,418.5C 258.5,418.5 256.5,418.5 254.5,418.5C 254.5,404.5 254.5,390.5 254.5,376.5C 255.791,376.737 256.791,376.404 257.5,375.5 Z"/></g>
<g><path style="opacity:0.985" fill="#030303" d="M 337.5,375.5 C 338.5,375.5 339.5,375.5 340.5,375.5C 340.5,389.833 340.5,404.167 340.5,418.5C 338.5,418.5 336.5,418.5 334.5,418.5C 334.5,404.5 334.5,390.5 334.5,376.5C 335.791,376.737 336.791,376.404 337.5,375.5 Z"/></g>
<g><path style="opacity:0.879" fill="#030303" d="M 408.5,375.5 C 413.804,375.451 415.471,377.784 413.5,382.5C 407.5,381.167 405.167,383.5 406.5,389.5C 410.145,388.68 412.478,390.013 413.5,393.5C 411.257,394.474 408.924,394.808 406.5,394.5C 406.5,407.167 406.5,419.833 406.5,432.5C 404.167,432.5 401.833,432.5 399.5,432.5C 399.5,419.833 399.5,407.167 399.5,394.5C 397.833,394.5 396.167,394.5 394.5,394.5C 394.5,392.833 394.5,391.167 394.5,389.5C 396.167,389.5 397.833,389.5 399.5,389.5C 398.04,381.718 401.04,377.052 408.5,375.5 Z"/></g>
<g><path style="opacity:0.877" fill="#040404" d="M 117.5,376.5 C 123.62,376.259 125.287,378.759 122.5,384C 116.206,384.578 114.539,382.078 117.5,376.5 Z"/></g>
<g><path style="opacity:0.855" fill="#040404" d="M 289.5,376.5 C 295.62,376.259 297.287,378.759 294.5,384C 288.206,384.578 286.539,382.078 289.5,376.5 Z"/></g>
<g><path style="opacity:0.888" fill="#020202" d="M 37.5,376.5 C 39.7288,377.055 41.3954,378.389 42.5,380.5C 37.5889,385.239 33.2555,390.406 29.5,396C 34.6264,403.297 39.9597,410.464 45.5,417.5C 42.8938,418.652 40.2272,418.818 37.5,418C 33,412.167 28.5,406.333 24,400.5C 23,401.5 22,402.5 21,403.5C 20.5007,408.489 20.3341,413.489 20.5,418.5C 18.1667,418.5 15.8333,418.5 13.5,418.5C 13.5,404.833 13.5,391.167 13.5,377.5C 15.8333,377.5 18.1667,377.5 20.5,377.5C 20.3339,383.176 20.5006,388.843 21,394.5C 26.3377,388.33 31.8377,382.33 37.5,376.5 Z"/></g>
<g><path style="opacity:0.917" fill="#020202" d="M 177.5,377.5 C 179.467,377.261 181.301,377.594 183,378.5C 186.946,384.779 191.279,390.779 196,396.5C 200,390.5 204,384.5 208,378.5C 209.699,377.594 211.533,377.261 213.5,377.5C 213.5,391.167 213.5,404.833 213.5,418.5C 211.167,418.5 208.833,418.5 206.5,418.5C 206.666,410.16 206.5,401.827 206,393.5C 203.277,396.557 200.944,399.89 199,403.5C 198.196,404.804 197.029,405.471 195.5,405.5C 191.492,401.65 187.992,397.317 185,392.5C 184.5,401.16 184.334,409.827 184.5,418.5C 182.167,418.5 179.833,418.5 177.5,418.5C 177.5,404.833 177.5,391.167 177.5,377.5 Z"/></g>
<g><path style="opacity:0.943" fill="#040404" d="M 87.5,380.5 C 89.3878,382.988 90.0545,385.988 89.5,389.5C 93.8328,388.685 96.1662,390.352 96.5,394.5C 94.1667,394.5 91.8333,394.5 89.5,394.5C 89.334,399.844 89.5006,405.177 90,410.5C 91.3246,412.993 93.4913,414.16 96.5,414C 99.5524,418.48 98.2191,420.313 92.5,419.5C 88.7189,420.173 85.8856,418.839 84,415.5C 83.5004,408.508 83.3337,401.508 83.5,394.5C 81.8333,394.5 80.1667,394.5 78.5,394.5C 78.5,392.833 78.5,391.167 78.5,389.5C 80.1667,389.5 81.8333,389.5 83.5,389.5C 83.5,386.833 83.5,384.167 83.5,381.5C 85.099,381.768 86.4324,381.434 87.5,380.5 Z"/></g>
<g><path style="opacity:0.932" fill="#040303" d="M 274.5,380.5 C 276.388,382.988 277.055,385.988 276.5,389.5C 280.833,388.685 283.166,390.352 283.5,394.5C 281.167,394.5 278.833,394.5 276.5,394.5C 276.334,399.844 276.501,405.177 277,410.5C 278.325,412.993 280.491,414.16 283.5,414C 286.552,418.48 285.219,420.313 279.5,419.5C 275.719,420.173 272.886,418.839 271,415.5C 270.5,408.508 270.334,401.508 270.5,394.5C 268.833,394.5 267.167,394.5 265.5,394.5C 265.5,392.833 265.5,391.167 265.5,389.5C 267.167,389.5 268.833,389.5 270.5,389.5C 270.5,386.833 270.5,384.167 270.5,381.5C 272.099,381.768 273.432,381.434 274.5,380.5 Z"/></g>
<g><path style="opacity:0.929" fill="#030303" d="M 383.5,380.5 C 385.388,382.988 386.055,385.988 385.5,389.5C 389.833,388.685 392.166,390.352 392.5,394.5C 390.167,394.5 387.833,394.5 385.5,394.5C 385.334,399.844 385.501,405.177 386,410.5C 387.325,412.993 389.491,414.16 392.5,414C 395.552,418.48 394.219,420.313 388.5,419.5C 384.719,420.173 381.886,418.839 380,415.5C 379.5,408.508 379.334,401.508 379.5,394.5C 377.833,394.5 376.167,394.5 374.5,394.5C 374.5,392.833 374.5,391.167 374.5,389.5C 376.167,389.5 377.833,389.5 379.5,389.5C 379.5,386.833 379.5,384.167 379.5,381.5C 381.099,381.768 382.432,381.434 383.5,380.5 Z"/></g>
<g><path style="opacity:0.883" fill="#020202" d="M 145.5,387.5 C 149.981,387.428 153.147,389.428 155,393.5C 156.33,401.773 156.83,410.107 156.5,418.5C 154.167,418.5 151.833,418.5 149.5,418.5C 149.666,411.492 149.5,404.492 149,397.5C 148.333,395.5 147,394.167 145,393.5C 142.293,394.437 139.793,395.77 137.5,397.5C 136.503,404.468 136.17,411.468 136.5,418.5C 134.167,418.5 131.833,418.5 129.5,418.5C 129.5,408.5 129.5,398.5 129.5,388.5C 132.408,388.262 134.742,389.262 136.5,391.5C 139.285,389.432 142.285,388.098 145.5,387.5 Z"/></g>
<g><path style="opacity:0.905" fill="#020202" d="M 486.5,387.5 C 490.199,387.788 493.033,389.454 495,392.5C 500.957,386.975 506.957,386.642 513,391.5C 513.973,393.392 514.64,395.392 515,397.5C 515.5,404.492 515.666,411.492 515.5,418.5C 513.167,418.5 510.833,418.5 508.5,418.5C 508.666,411.492 508.5,404.492 508,397.5C 507.333,395.5 506,394.167 504,393.5C 501.429,394.401 499.096,395.734 497,397.5C 496.5,404.492 496.334,411.492 496.5,418.5C 494.167,418.5 491.833,418.5 489.5,418.5C 489.666,411.159 489.5,403.826 489,396.5C 488.333,395.167 487.333,394.167 486,393.5C 483.293,394.437 480.793,395.77 478.5,397.5C 477.503,404.468 477.17,411.468 477.5,418.5C 475.167,418.5 472.833,418.5 470.5,418.5C 470.5,408.5 470.5,398.5 470.5,388.5C 473.408,388.262 475.742,389.262 477.5,391.5C 480.285,389.432 483.285,388.098 486.5,387.5 Z"/></g>
<g><path style="opacity:0.896" fill="#030303" d="M 56.5,388.5 C 72.1297,386.964 78.6297,393.964 76,409.5C 72.4069,418.164 65.9069,421.33 56.5,419C 50.1948,416.075 46.8614,411.075 46.5,404C 46.5218,396.515 49.8551,391.348 56.5,388.5 Z M 58.5,394.5 C 67.965,394.372 71.465,399.039 69,408.5C 66.9276,413.143 63.4276,414.643 58.5,413C 51.9145,406.888 51.9145,400.721 58.5,394.5 Z"/></g>
<g><path style="opacity:0.895" fill="#020202" d="M 221.5,388.5 C 223.833,388.5 226.167,388.5 228.5,388.5C 228.334,396.507 228.5,404.507 229,412.5C 233.595,414.174 237.595,413.174 241,409.5C 241.5,402.508 241.666,395.508 241.5,388.5C 243.5,388.5 245.5,388.5 247.5,388.5C 247.5,398.5 247.5,408.5 247.5,418.5C 245.833,418.5 244.167,418.5 242.5,418.5C 242.649,417.448 242.483,416.448 242,415.5C 235.99,420.321 229.824,420.654 223.5,416.5C 223,415.5 222.5,414.5 222,413.5C 221.5,405.173 221.334,396.84 221.5,388.5 Z"/></g>
<g><path style="opacity:0.862" fill="#020202" d="M 301.5,388.5 C 303.821,388.229 305.821,388.896 307.5,390.5C 320.735,385.72 328.069,390.386 329.5,404.5C 327.979,416.59 321.313,421.256 309.5,418.5C 308.507,423.12 308.173,427.786 308.5,432.5C 306.167,432.5 303.833,432.5 301.5,432.5C 301.5,417.833 301.5,403.167 301.5,388.5 Z M 310.5,394.5 C 318.005,393.59 322.005,396.923 322.5,404.5C 321.182,412.161 316.849,414.828 309.5,412.5C 307.951,406.242 308.284,400.242 310.5,394.5 Z"/></g>
<g><path style="opacity:0.883" fill="#030303" d="M 353.5,388.5 C 359.971,387.345 365.471,389.011 370,393.5C 371.37,401.764 371.87,410.097 371.5,418.5C 369.08,418.708 366.747,418.374 364.5,417.5C 355.63,421.991 349.63,419.658 346.5,410.5C 347.188,405.604 349.854,402.437 354.5,401C 357.882,400.824 361.215,400.324 364.5,399.5C 363.872,397.742 362.872,396.242 361.5,395C 357.796,394.196 354.296,394.696 351,396.5C 349.885,395 349.052,393.333 348.5,391.5C 350.145,390.304 351.811,389.304 353.5,388.5 Z M 355.5,405.5 C 358.5,405.5 361.5,405.5 364.5,405.5C 364.198,412.997 360.698,415.331 354,412.5C 353.167,409.829 353.667,407.496 355.5,405.5 Z"/></g>
<g><path style="opacity:0.89" fill="#030303" d="M 425.5,388.5 C 441.13,386.964 447.63,393.964 445,409.5C 441.407,418.164 434.907,421.33 425.5,419C 418.849,416.507 415.516,411.674 415.5,404.5C 415.365,396.803 418.698,391.469 425.5,388.5 Z M 427.5,394.5 C 436.965,394.372 440.465,399.039 438,408.5C 435.928,413.143 432.428,414.643 427.5,413C 421.051,406.912 421.051,400.745 427.5,394.5 Z"/></g>
<g><path style="opacity:0.899" fill="#030303" d="M 449.5,388.5 C 452.95,387.756 454.616,389.09 454.5,392.5C 457.908,391.051 461.408,389.718 465,388.5C 465.813,390.436 466.313,392.436 466.5,394.5C 462.77,395.056 459.603,396.722 457,399.5C 456.5,405.825 456.334,412.158 456.5,418.5C 454.167,418.5 451.833,418.5 449.5,418.5C 449.5,408.5 449.5,398.5 449.5,388.5 Z"/></g>
<g><path style="opacity:0.924" fill="#040303" d="M 116.5,388.5 C 118.833,388.5 121.167,388.5 123.5,388.5C 123.5,398.5 123.5,408.5 123.5,418.5C 121.167,418.5 118.833,418.5 116.5,418.5C 116.5,408.5 116.5,398.5 116.5,388.5 Z"/></g>
<g><path style="opacity:0.988" fill="#030202" d="M 288.5,388.5 C 290.833,388.5 293.167,388.5 295.5,388.5C 295.5,398.5 295.5,408.5 295.5,418.5C 293.167,418.5 290.833,418.5 288.5,418.5C 288.5,408.5 288.5,398.5 288.5,388.5 Z"/></g>
</svg>
