<svg width="400" height="400" viewBox="0 0 400 400" xmlns="http://www.w3.org/2000/svg">
  <!-- Isometric frame with two shelves -->
  <defs>
    <linearGradient id="metalGradient" x1="0%" y1="0%" x2="100%" y2="100%">
      <stop offset="0%" stop-color="#D0D0D0" />
      <stop offset="50%" stop-color="#F0F0F0" />
      <stop offset="100%" stop-color="#A0A0A0" />
    </linearGradient>
    <filter id="shadow" x="-20%" y="-20%" width="140%" height="140%">
      <feGaussianBlur in="SourceAlpha" stdDeviation="3" />
      <feOffset dx="2" dy="2" result="offsetblur" />
      <feComponentTransfer>
        <feFuncA type="linear" slope="0.5" />
      </feComponentTransfer>
      <feMerge>
        <feMergeNode />
        <feMergeNode in="SourceGraphic" />
      </feMerge>
    </filter>
  </defs>

  <!-- Left front leg -->
  <path d="M100,300 L100,100 L110,95 L110,295 Z" fill="url(#metalGradient)" stroke="#888" stroke-width="1" filter="url(#shadow)" />
  
  <!-- Right front leg -->
  <path d="M300,300 L300,100 L310,95 L310,295 Z" fill="url(#metalGradient)" stroke="#888" stroke-width="1" filter="url(#shadow)" />
  
  <!-- Left back leg -->
  <path d="M150,270 L150,70 L160,65 L160,265 Z" fill="url(#metalGradient)" stroke="#888" stroke-width="1" filter="url(#shadow)" />
  
  <!-- Right back leg -->
  <path d="M250,270 L250,70 L260,65 L260,265 Z" fill="url(#metalGradient)" stroke="#888" stroke-width="1" filter="url(#shadow)" />
  
  <!-- Front horizontal bar -->
  <path d="M100,300 L300,300 L300,290 L100,290 Z" fill="url(#metalGradient)" stroke="#888" stroke-width="1" filter="url(#shadow)" />
  
  <!-- Back horizontal bar -->
  <path d="M150,270 L250,270 L250,260 L150,260 Z" fill="url(#metalGradient)" stroke="#888" stroke-width="1" filter="url(#shadow)" />
  
  <!-- Left horizontal bar -->
  <path d="M100,300 L150,270 L150,260 L100,290 Z" fill="url(#metalGradient)" stroke="#888" stroke-width="1" filter="url(#shadow)" />
  
  <!-- Right horizontal bar -->
  <path d="M300,300 L250,270 L250,260 L300,290 Z" fill="url(#metalGradient)" stroke="#888" stroke-width="1" filter="url(#shadow)" />
  
  <!-- Top frame -->
  <path d="M100,100 L300,100 L250,70 L150,70 Z" fill="url(#metalGradient)" stroke="#888" stroke-width="1" filter="url(#shadow)" />
  
  <!-- Upper shelf -->
  <path d="M105,160 L295,160 L245,130 L155,130 Z" fill="url(#metalGradient)" stroke="#888" stroke-width="1" filter="url(#shadow)" />
  <path d="M105,160 L105,155 L295,155 L295,160 Z" fill="#FFFFFF" fill-opacity="0.3" stroke="#888" stroke-width="0.5" />
  <path d="M295,160 L295,155 L245,125 L245,130 Z" fill="#FFFFFF" fill-opacity="0.2" stroke="#888" stroke-width="0.5" />
  <path d="M155,130 L155,125 L245,125 L245,130 Z" fill="#FFFFFF" fill-opacity="0.4" stroke="#888" stroke-width="0.5" />
  <path d="M105,160 L105,155 L155,125 L155,130 Z" fill="#FFFFFF" fill-opacity="0.2" stroke="#888" stroke-width="0.5" />
  
  <!-- Lower shelf -->
  <path d="M105,230 L295,230 L245,200 L155,200 Z" fill="url(#metalGradient)" stroke="#888" stroke-width="1" filter="url(#shadow)" />
  <path d="M105,230 L105,225 L295,225 L295,230 Z" fill="#FFFFFF" fill-opacity="0.3" stroke="#888" stroke-width="0.5" />
  <path d="M295,230 L295,225 L245,195 L245,200 Z" fill="#FFFFFF" fill-opacity="0.2" stroke="#888" stroke-width="0.5" />
  <path d="M155,200 L155,195 L245,195 L245,200 Z" fill="#FFFFFF" fill-opacity="0.4" stroke="#888" stroke-width="0.5" />
  <path d="M105,230 L105,225 L155,195 L155,200 Z" fill="#FFFFFF" fill-opacity="0.2" stroke="#888" stroke-width="0.5" />
  
  <!-- Highlights -->
  <path d="M100,100 L110,95 L310,95 L300,100 Z" fill="#FFFFFF" fill-opacity="0.5" stroke="#888" stroke-width="0.5" />
  <path d="M300,100 L310,95 L260,65 L250,70 Z" fill="#FFFFFF" fill-opacity="0.3" stroke="#888" stroke-width="0.5" />
</svg>
