<svg width="400" height="400" viewBox="0 0 400 400" xmlns="http://www.w3.org/2000/svg">
  <!-- Isometric frame with cabinet with hinged doors -->
  <defs>
    <linearGradient id="metalGradient" x1="0%" y1="0%" x2="100%" y2="100%">
      <stop offset="0%" stop-color="#D0D0D0" />
      <stop offset="50%" stop-color="#F0F0F0" />
      <stop offset="100%" stop-color="#A0A0A0" />
    </linearGradient>
    <linearGradient id="cabinetGradient" x1="0%" y1="0%" x2="100%" y2="100%">
      <stop offset="0%" stop-color="#B0B0B0" />
      <stop offset="50%" stop-color="#D0D0D0" />
      <stop offset="100%" stop-color="#909090" />
    </linearGradient>
    <filter id="shadow" x="-20%" y="-20%" width="140%" height="140%">
      <feGaussianBlur in="SourceAlpha" stdDeviation="3" />
      <feOffset dx="2" dy="2" result="offsetblur" />
      <feComponentTransfer>
        <feFuncA type="linear" slope="0.5" />
      </feComponentTransfer>
      <feMerge>
        <feMergeNode />
        <feMergeNode in="SourceGraphic" />
      </feMerge>
    </filter>
  </defs>

  <!-- Left front leg -->
  <path d="M100,300 L100,100 L110,95 L110,295 Z" fill="url(#metalGradient)" stroke="#888" stroke-width="1" filter="url(#shadow)" />
  
  <!-- Right front leg -->
  <path d="M300,300 L300,100 L310,95 L310,295 Z" fill="url(#metalGradient)" stroke="#888" stroke-width="1" filter="url(#shadow)" />
  
  <!-- Left back leg -->
  <path d="M150,270 L150,70 L160,65 L160,265 Z" fill="url(#metalGradient)" stroke="#888" stroke-width="1" filter="url(#shadow)" />
  
  <!-- Right back leg -->
  <path d="M250,270 L250,70 L260,65 L260,265 Z" fill="url(#metalGradient)" stroke="#888" stroke-width="1" filter="url(#shadow)" />
  
  <!-- Front horizontal bar -->
  <path d="M100,300 L300,300 L300,290 L100,290 Z" fill="url(#metalGradient)" stroke="#888" stroke-width="1" filter="url(#shadow)" />
  
  <!-- Back horizontal bar -->
  <path d="M150,270 L250,270 L250,260 L150,260 Z" fill="url(#metalGradient)" stroke="#888" stroke-width="1" filter="url(#shadow)" />
  
  <!-- Left horizontal bar -->
  <path d="M100,300 L150,270 L150,260 L100,290 Z" fill="url(#metalGradient)" stroke="#888" stroke-width="1" filter="url(#shadow)" />
  
  <!-- Right horizontal bar -->
  <path d="M300,300 L250,270 L250,260 L300,290 Z" fill="url(#metalGradient)" stroke="#888" stroke-width="1" filter="url(#shadow)" />
  
  <!-- Top frame -->
  <path d="M100,100 L300,100 L250,70 L150,70 Z" fill="url(#metalGradient)" stroke="#888" stroke-width="1" filter="url(#shadow)" />
  
  <!-- Cabinet body -->
  <path d="M110,290 L290,290 L290,150 L110,150 Z" fill="url(#cabinetGradient)" stroke="#888" stroke-width="1" filter="url(#shadow)" />
  <path d="M290,290 L290,150 L240,120 L240,260 Z" fill="url(#cabinetGradient)" stroke="#888" stroke-width="1" filter="url(#shadow)" opacity="0.9" />
  
  <!-- Cabinet doors -->
  <path d="M110,290 L200,290 L200,150 L110,150 Z" fill="url(#metalGradient)" stroke="#888" stroke-width="1" filter="url(#shadow)" />
  <path d="M200,290 L290,290 L290,150 L200,150 Z" fill="url(#metalGradient)" stroke="#888" stroke-width="1" filter="url(#shadow)" />
  
  <!-- Door handles -->
  <circle cx="190" cy="220" r="5" fill="#888" stroke="#666" stroke-width="1" />
  <circle cx="210" cy="220" r="5" fill="#888" stroke="#666" stroke-width="1" />
  
  <!-- Door divider -->
  <path d="M200,290 L200,150" fill="none" stroke="#888" stroke-width="2" />
  
  <!-- Highlights -->
  <path d="M100,100 L110,95 L310,95 L300,100 Z" fill="#FFFFFF" fill-opacity="0.5" stroke="#888" stroke-width="0.5" />
  <path d="M300,100 L310,95 L260,65 L250,70 Z" fill="#FFFFFF" fill-opacity="0.3" stroke="#888" stroke-width="0.5" />
  <path d="M110,150 L200,150" fill="none" stroke="#FFFFFF" stroke-width="1" stroke-opacity="0.5" />
  <path d="M200,150 L290,150" fill="none" stroke="#FFFFFF" stroke-width="1" stroke-opacity="0.5" />
</svg>
