<svg width="400" height="400" viewBox="0 0 400 400" xmlns="http://www.w3.org/2000/svg">
  <!-- Isometric frame with cabinet with sliding doors - Nordinox style -->
  <defs>
    <linearGradient id="steelGradient" x1="0%" y1="0%" x2="100%" y2="100%">
      <stop offset="0%" stop-color="#C8C8C8" />
      <stop offset="50%" stop-color="#E8E8E8" />
      <stop offset="100%" stop-color="#B0B0B0" />
    </linearGradient>
    <linearGradient id="inoxGradient" x1="0%" y1="0%" x2="100%" y2="100%">
      <stop offset="0%" stop-color="#D8D8D8" />
      <stop offset="50%" stop-color="#F0F0F0" />
      <stop offset="100%" stop-color="#C0C0C0" />
    </linearGradient>
    <linearGradient id="doorGradient1" x1="0%" y1="0%" x2="100%" y2="0%">
      <stop offset="0%" stop-color="#D5D5D5" />
      <stop offset="50%" stop-color="#E8E8E8" />
      <stop offset="100%" stop-color="#D0D0D0" />
    </linearGradient>
    <linearGradient id="doorGradient2" x1="0%" y1="0%" x2="100%" y2="0%">
      <stop offset="0%" stop-color="#C8C8C8" />
      <stop offset="50%" stop-color="#E0E0E0" />
      <stop offset="100%" stop-color="#C5C5C5" />
    </linearGradient>
    <filter id="shadow" x="-20%" y="-20%" width="140%" height="140%">
      <feGaussianBlur in="SourceAlpha" stdDeviation="2" />
      <feOffset dx="2" dy="2" result="offsetblur" />
      <feComponentTransfer>
        <feFuncA type="linear" slope="0.4" />
      </feComponentTransfer>
      <feMerge>
        <feMergeNode />
        <feMergeNode in="SourceGraphic" />
      </feMerge>
    </filter>
    <linearGradient id="guideRailGradient" x1="0%" y1="0%" x2="0%" y2="100%">
      <stop offset="0%" stop-color="#AAA" />
      <stop offset="50%" stop-color="#888" />
      <stop offset="100%" stop-color="#999" />
    </linearGradient>
  </defs>

  <!-- Frame legs - made thicker for industrial look -->
  <path d="M100,300 L100,100 L115,92 L115,292 Z" fill="url(#steelGradient)" stroke="#777" stroke-width="1.2" filter="url(#shadow)" />
  <path d="M300,300 L300,100 L315,92 L315,292 Z" fill="url(#steelGradient)" stroke="#777" stroke-width="1.2" filter="url(#shadow)" />
  <path d="M150,270 L150,70 L165,62 L165,262 Z" fill="url(#steelGradient)" stroke="#777" stroke-width="1.2" filter="url(#shadow)" />
  <path d="M250,270 L250,70 L265,62 L265,262 Z" fill="url(#steelGradient)" stroke="#777" stroke-width="1.2" filter="url(#shadow)" />
  
  <!-- Reinforced horizontal bars -->
  <path d="M100,300 L300,300 L300,285 L100,285 Z" fill="url(#steelGradient)" stroke="#777" stroke-width="1.2" filter="url(#shadow)" />
  <path d="M150,270 L250,270 L250,255 L150,255 Z" fill="url(#steelGradient)" stroke="#777" stroke-width="1.2" filter="url(#shadow)" />
  <path d="M100,300 L150,270 L150,255 L100,285 Z" fill="url(#steelGradient)" stroke="#777" stroke-width="1.2" filter="url(#shadow)" />
  <path d="M300,300 L250,270 L250,255 L300,285 Z" fill="url(#steelGradient)" stroke="#777" stroke-width="1.2" filter="url(#shadow)" />
  
  <!-- Top reinforced frame -->
  <path d="M100,100 L300,100 L250,70 L150,70 Z" fill="url(#steelGradient)" stroke="#777" stroke-width="1.2" filter="url(#shadow)" />
  
  <!-- Cabinet body - with inox finish -->
  <path d="M115,280 L285,280 L285,140 L115,140 Z" fill="url(#inoxGradient)" stroke="#888" stroke-width="1" filter="url(#shadow)" />
  <path d="M285,280 L285,140 L240,110 L240,250 Z" fill="url(#inoxGradient)" stroke="#888" stroke-width="1" filter="url(#shadow)" opacity="0.92" />
  
  <!-- Rails for sliding doors -->
  <path d="M115,145 L285,145 L285,140 L115,140 Z" fill="url(#guideRailGradient)" stroke="#666" stroke-width="0.5" />
  <path d="M115,275 L285,275 L285,280 L115,280 Z" fill="url(#guideRailGradient)" stroke="#666" stroke-width="0.5" />
  
  <!-- Sliding doors - with more professional finish -->
  <path d="M115,275 L210,275 L210,145 L115,145 Z" fill="url(#doorGradient1)" stroke="#888" stroke-width="1" />
  <path d="M185,275 L285,275 L285,145 L185,145 Z" fill="url(#doorGradient2)" stroke="#888" stroke-width="1" />
  
  <!-- Professional door handles - horizontal bar style -->
  <rect x="195" y="210" width="12" height="4" rx="1" fill="#888" stroke="#666" stroke-width="0.5" />
  <rect x="170" y="210" width="12" height="4" rx="1" fill="#888" stroke="#666" stroke-width="0.5" />
  
  <!-- Door side detailing -->
  <path d="M210,145 L210,275" stroke="#999" stroke-width="1" />
  <path d="M185,145 L185,275" stroke="#999" stroke-width="1" />
  
  <!-- Additional reinforcement bars -->
  <path d="M100,200 L115,192" stroke="#888" stroke-width="2" />
  <path d="M300,200 L315,192" stroke="#888" stroke-width="2" />
  <path d="M150,170 L165,162" stroke="#888" stroke-width="2" />
  <path d="M250,170 L265,162" stroke="#888" stroke-width="2" />
  
  <!-- Metal highlights -->
  <path d="M100,100 L115,92 L315,92 L300,100 Z" fill="#FFFFFF" fill-opacity="0.4" stroke="#888" stroke-width="0.5" />
  <path d="M300,100 L315,92 L265,62 L250,70 Z" fill="#FFFFFF" fill-opacity="0.3" stroke="#888" stroke-width="0.5" />
  
  <!-- Nordinox-style floor levelers -->
  <circle cx="107" cy="300" r="5" fill="#666" stroke="#444" stroke-width="0.5" />
  <circle cx="293" cy="300" r="5" fill="#666" stroke="#444" stroke-width="0.5" />
  <circle cx="157" cy="270" r="5" fill="#666" stroke="#444" stroke-width="0.5" />
  <circle cx="243" cy="270" r="5" fill="#666" stroke="#444" stroke-width="0.5" />
</svg>
