<svg width="200" height="160" viewBox="0 0 200 160" xmlns="http://www.w3.org/2000/svg">
  <!-- Definición de gradientes para efecto metálico -->
  <defs>
    <linearGradient id="metalSurface" x1="0%" y1="0%" x2="100%" y2="100%">
      <stop offset="0%" stop-color="#E8E8E8" />
      <stop offset="25%" stop-color="#C0C0C0" />
      <stop offset="50%" stop-color="#DADADA" />
      <stop offset="75%" stop-color="#B0B0B0" />
      <stop offset="100%" stop-color="#D6D6D6" />
    </linearGradient>
    
    <linearGradient id="metalEdge" x1="0%" y1="0%" x2="0%" y2="100%">
      <stop offset="0%" stop-color="#F5F5F5" />
      <stop offset="50%" stop-color="#A0A0A0" />
      <stop offset="100%" stop-color="#EEEEEE" />
    </linearGradient>
    
    <linearGradient id="metalCut" x1="0%" y1="0%" x2="0%" y2="100%">
      <stop offset="0%" stop-color="#CCCCCC" />
      <stop offset="50%" stop-color="#888888" />
      <stop offset="100%" stop-color="#AAAAAA" />
    </linearGradient>
    
    <filter id="softShadow" x="-20%" y="-20%" width="140%" height="140%">
      <feGaussianBlur in="SourceAlpha" stdDeviation="2" />
      <feOffset dx="1" dy="1" result="offsetblur" />
      <feComponentTransfer>
        <feFuncA type="linear" slope="0.3" />
      </feComponentTransfer>
      <feMerge>
        <feMergeNode />
        <feMergeNode in="SourceGraphic" />
      </feMerge>
    </filter>
  </defs>

  <!-- Superficie principal (vista aérea de la mesa) -->
  <rect x="20" y="20" width="160" height="120" rx="10" fill="url(#metalSurface)" stroke="#888888" stroke-width="2" filter="url(#softShadow)" />

  <!-- Detalle de borde metálico -->
  <rect x="25" y="25" width="150" height="110" rx="8" fill="none" stroke="url(#metalEdge)" stroke-width="1.5" />

  <!-- Boquetón (recorte) en el perímetro con acabado metálico -->
  <path d="M 70,140
           A 30,30 0 0 1 130,140
           L 130,120
           A 20,20 0 0 0 70,120
           Z"
        fill="url(#metalCut)"
        stroke="#666666"
        stroke-width="2" />

  <!-- Detalles de brillo en el boquetón -->
  <path d="M 75,138
           A 25,25 0 0 1 125,138
           L 125,122
           A 15,15 0 0 0 75,122
           Z"
        fill="none"
        stroke="#FFFFFF"
        stroke-opacity="0.6"
        stroke-width="1" />

  <!-- Líneas de detalle en la superficie (simulando textura del acero) -->
  <line x1="40" y1="40" x2="160" y2="40" stroke="#FFFFFF" stroke-opacity="0.5" stroke-width="0.7" />
  <line x1="40" y1="60" x2="160" y2="60" stroke="#FFFFFF" stroke-opacity="0.4" stroke-width="0.7" />
  <line x1="40" y1="80" x2="160" y2="80" stroke="#FFFFFF" stroke-opacity="0.3" stroke-width="0.7" />
  <line x1="40" y1="100" x2="160" y2="100" stroke="#FFFFFF" stroke-opacity="0.2" stroke-width="0.7" />

  <!-- Detalles de brillo metálico -->
  <line x1="30" y1="30" x2="50" y2="50" stroke="#FFFFFF" stroke-opacity="0.7" stroke-width="0.5" />
  <line x1="150" y1="30" x2="170" y2="50" stroke="#FFFFFF" stroke-opacity="0.7" stroke-width="0.5" />
  <line x1="30" y1="130" x2="50" y2="110" stroke="#FFFFFF" stroke-opacity="0.7" stroke-width="0.5" />
  
  <!-- Reflejo característico del acero inoxidable -->
  <ellipse cx="100" cy="70" rx="60" ry="20" fill="#FFFFFF" fill-opacity="0.1" />
</svg>
