<svg width="200" height="160" viewBox="0 0 200 160" xmlns="http://www.w3.org/2000/svg">
  <!-- Definiciones de gradientes -->
  <defs>
    <linearGradient id="metalGradient" x1="0%" y1="0%" x2="100%" y2="100%">
      <stop offset="0%" stop-color="#E8E8E8" />
      <stop offset="50%" stop-color="#C0C0C0" />
      <stop offset="100%" stop-color="#A8A8A8" />
    </linearGradient>
    <linearGradient id="metalGradient2" x1="0%" y1="0%" x2="0%" y2="100%">
      <stop offset="0%" stop-color="#FFFFFF" />
      <stop offset="50%" stop-color="#D0D0D0" />
      <stop offset="100%" stop-color="#A0A0A0" />
    </linearGradient>
    <radialGradient id="waterGradient" cx="50%" cy="50%" r="50%" fx="50%" fy="50%">
      <stop offset="0%" stop-color="#E6F7FF" />
      <stop offset="100%" stop-color="#B3E0FF" />
    </radialGradient>
  </defs>
  
  <!-- Base principal del lavamanos con efecto metálico -->
  <rect x="50" y="30" width="100" height="80" rx="10" fill="url(#metalGradient)" stroke="#888888" stroke-width="2" />
  
  <!-- Borde metálico reforzado -->
  <rect x="48" y="28" width="104" height="84" rx="12" fill="none" stroke="#707070" stroke-width="1" stroke-dasharray="2,1" />

  <!-- Cuenca del lavamanos con efecto metálico -->
  <ellipse cx="100" cy="70" rx="35" ry="25" fill="url(#metalGradient2)" stroke="#888888" stroke-width="2" />

  <!-- Sombra interior del lavamanos para dar profundidad -->
  <ellipse cx="100" cy="70" rx="28" ry="18" fill="none" stroke="#B0B0B0" stroke-width="1.5" />
  <ellipse cx="100" cy="70" rx="32" ry="22" fill="none" stroke="#999999" stroke-width="0.5" />

  <!-- Representación del agua -->
  <ellipse cx="100" cy="70" rx="25" ry="15" fill="url(#waterGradient)" stroke="none" opacity="0.7" />
  
  <!-- Efecto de brillo en el metal -->
  <ellipse cx="85" cy="60" rx="15" ry="8" fill="#FFFFFF" opacity="0.1" />

  <!-- Grifo/dispensador mejorado -->
  <rect x="120" y="40" width="8" height="15" rx="2" fill="#909090" stroke="#707070" stroke-width="1" />
  <circle cx="124" cy="40" r="5" fill="#A0A0A0" stroke="#707070" stroke-width="1" />
  <!-- Brillo en el grifo -->
  <line x1="122" y1="38" x2="126" y2="42" stroke="#FFFFFF" stroke-width="0.5" opacity="0.7" />

  <!-- Tubo que conecta al pedal -->
  <path d="M 124 55 L 124 100 L 150 130" fill="none" stroke="#909090" stroke-width="2" />
  <!-- Conector tubo-pedal -->
  <circle cx="150" cy="130" r="2" fill="#808080" stroke="#606060" stroke-width="0.5" />

  <!-- Pedal mejorado -->
  <rect x="145" y="125" width="25" height="8" rx="2" fill="url(#metalGradient)" stroke="#606060" stroke-width="1" />
  <!-- Base del pedal -->
  <rect x="150" y="133" width="15" height="3" rx="1" fill="#707070" stroke="#505050" stroke-width="0.5" />
  <!-- Ranura del pedal -->
  <line x1="150" y1="129" x2="165" y2="129" stroke="#505050" stroke-width="0.5" />

  <!-- Desagüe mejorado -->
  <circle cx="100" cy="70" r="3" fill="#606060" stroke="#404040" stroke-width="1" />
  <circle cx="100" cy="70" r="5" fill="none" stroke="#787878" stroke-width="0.5" />
  
  <!-- Tubo de desagüe -->
  <path d="M 100 70 L 80 100 L 80 120" fill="none" stroke="#909090" stroke-width="2" />
  <!-- Conectores del tubo -->
  <circle cx="80" cy="100" r="2" fill="#808080" stroke="#606060" stroke-width="0.5" />

  <!-- Recipiente de agua usada con efecto metálico -->
  <rect x="70" y="120" width="20" height="15" rx="2" fill="url(#metalGradient)" stroke="#787878" stroke-width="1" />
  <!-- Efecto de profundidad en recipiente -->
  <rect x="72" y="122" width="16" height="11" rx="1" fill="none" stroke="#A0A0A0" stroke-width="0.5" />

  <!-- Detalles de la estructura -->
  <rect x="55" y="35" width="90" height="70" rx="8" fill="none" stroke="#B0B0B0" stroke-width="1" stroke-dasharray="1,0.5" />

  <!-- Tornillos decorativos -->
  <circle cx="55" cy="35" r="1" fill="#606060" />
  <circle cx="145" cy="35" r="1" fill="#606060" />
  <circle cx="55" cy="105" r="1" fill="#606060" />
  <circle cx="145" cy="105" r="1" fill="#606060" />
</svg>
