<svg width="200" height="160" viewBox="0 0 200 160" xmlns="http://www.w3.org/2000/svg">
  <!-- Definición de gradientes para efecto metálico -->
  <defs>
    <linearGradient id="metalBase" x1="0%" y1="0%" x2="100%" y2="100%">
      <stop offset="0%" stop-color="#E8E8E8" />
      <stop offset="50%" stop-color="#CCCCCC" />
      <stop offset="100%" stop-color="#BBBBBB" />
    </linearGradient>
    <linearGradient id="metalSink" x1="0%" y1="0%" x2="100%" y2="100%">
      <stop offset="0%" stop-color="#EEEEEE" />
      <stop offset="50%" stop-color="#D8D8D8" />
      <stop offset="100%" stop-color="#CCCCCC" />
    </linearGradient>
    <linearGradient id="chrome" x1="0%" y1="0%" x2="100%" y2="100%">
      <stop offset="0%" stop-color="#FFFFFF" />
      <stop offset="40%" stop-color="#DDDDDD" />
      <stop offset="60%" stop-color="#AAAAAA" />
      <stop offset="100%" stop-color="#DDDDDD" />
    </linearGradient>
    <linearGradient id="blueMetal" x1="0%" y1="0%" x2="0%" y2="100%">
      <stop offset="0%" stop-color="#A0C8E0" />
      <stop offset="50%" stop-color="#80A8C0" />
      <stop offset="100%" stop-color="#6090B0" />
    </linearGradient>
    <linearGradient id="redMetal" x1="0%" y1="0%" x2="0%" y2="100%">
      <stop offset="0%" stop-color="#E0A0A0" />
      <stop offset="50%" stop-color="#C08080" />
      <stop offset="100%" stop-color="#B07070" />
    </linearGradient>
    <filter id="shadow" x="-20%" y="-20%" width="140%" height="140%">
      <feGaussianBlur in="SourceAlpha" stdDeviation="2" />
      <feOffset dx="2" dy="2" result="offsetblur" />
      <feComponentTransfer>
        <feFuncA type="linear" slope="0.3" />
      </feComponentTransfer>
      <feMerge>
        <feMergeNode />
        <feMergeNode in="SourceGraphic" />
      </feMerge>
    </filter>
  </defs>

  <!-- Base del kit lavamanos con efecto metálico -->
  <rect x="40" y="30" width="120" height="80" rx="5" fill="url(#metalBase)" stroke="#888888" stroke-width="2" filter="url(#shadow)" />

  <!-- Fregadero principal (vista aérea) con acabado metálico -->
  <ellipse cx="100" cy="60" rx="30" ry="20" fill="url(#metalSink)" stroke="#888888" stroke-width="2" />
  
  <!-- Brillo del fregadero -->
  <ellipse cx="90" cy="55" rx="20" ry="12" fill="none" stroke="#FFFFFF" stroke-width="1" stroke-opacity="0.7" />

  <!-- Desagüe con efecto metálico -->
  <circle cx="100" cy="60" r="4" fill="#777777" stroke="#555555" stroke-width="1" />
  <circle cx="100" cy="60" r="3" fill="#555555" stroke="#333333" stroke-width="0.5" />
  <circle cx="100" cy="60" r="2" fill="#333333" />

  <!-- Grifo con acabado cromado -->
  <rect x="93" y="28" width="14" height="5" rx="2" fill="url(#chrome)" stroke="#888888" stroke-width="1" />
  <rect x="97" y="33" width="6" height="12" rx="1" fill="url(#chrome)" stroke="#888888" stroke-width="1" />
  <ellipse cx="100" cy="45" rx="4" ry="2" fill="url(#chrome)" stroke="#888888" stroke-width="0.5" />

  <!-- Pedal izquierdo (agua fría) con efecto metálico -->
  <rect x="50" y="120" width="30" height="15" rx="3" fill="url(#blueMetal)" stroke="#888888" stroke-width="2" filter="url(#shadow)" />
  <rect x="55" y="125" width="20" height="5" rx="2" fill="#80A8C0" stroke="#666666" stroke-width="1" />
  <!-- Tornillos decorativos -->
  <circle cx="53" cy="123" r="1" fill="#666666" />
  <circle cx="77" cy="123" r="1" fill="#666666" />

  <!-- Pedal derecho (agua caliente) con efecto metálico -->
  <rect x="120" y="120" width="30" height="15" rx="3" fill="url(#redMetal)" stroke="#888888" stroke-width="2" filter="url(#shadow)" />
  <rect x="125" y="125" width="20" height="5" rx="2" fill="#C08080" stroke="#666666" stroke-width="1" />
  <!-- Tornillos decorativos -->
  <circle cx="123" cy="123" r="1" fill="#666666" />
  <circle cx="147" cy="123" r="1" fill="#666666" />

  <!-- Tuberías desde los pedales con aspecto metálico -->
  <path d="M 65 120 L 65 100 C 65 90, 90 90, 95 80" stroke="url(#chrome)" stroke-width="3" fill="none" />
  <path d="M 135 120 L 135 100 C 135 90, 110 90, 105 80" stroke="url(#chrome)" stroke-width="3" fill="none" />

  <!-- Conexiones a la base del lavamanos -->
  <path d="M 95 80 L 95 70" stroke="url(#chrome)" stroke-width="3" fill="none" />
  <path d="M 105 80 L 105 70" stroke="url(#chrome)" stroke-width="3" fill="none" />

  <!-- Etiquetas para los pedales con borde para mejor legibilidad -->
  <text x="65" y="133" font-family="Arial" font-size="6" font-weight="bold" text-anchor="middle" fill="#FFFFFF" stroke="#333333" stroke-width="0.3">Frío</text>
  <text x="135" y="133" font-family="Arial" font-size="6" font-weight="bold" text-anchor="middle" fill="#FFFFFF" stroke="#333333" stroke-width="0.3">Caliente</text>

  <!-- Detalles metálicos adicionales -->
  <line x1="40" y1="40" x2="160" y2="40" stroke="#FFFFFF" stroke-width="0.5" stroke-opacity="0.3" />
  <line x1="40" y1="100" x2="160" y2="100" stroke="#333333" stroke-width="0.5" stroke-opacity="0.3" />
</svg>
